<svg width="32" height="28" viewBox="0 0 32 28" fill="none" xmlns="http://www.w3.org/2000/svg">
<path d="M3 0C2.20435 0 1.44129 0.316071 0.87868 0.87868C0.316071 1.44129 0 2.20435 0 3V11C0 11.7956 0.316071 12.5587 0.87868 13.1213C1.44129 13.6839 2.20435 14 3 14H29C29.7956 14 30.5587 13.6839 31.1213 13.1213C31.6839 12.5587 32 11.7956 32 11V3C32 2.20435 31.6839 1.44129 31.1213 0.87868C30.5587 0.316071 29.7956 0 29 0H3ZM3 18C2.20435 18 1.44129 18.3161 0.87868 18.8787C0.316071 19.4413 0 20.2044 0 21V25C0 25.7956 0.316071 26.5587 0.87868 27.1213C1.44129 27.6839 2.20435 28 3 28H11C11.7956 28 12.5587 27.6839 13.1213 27.1213C13.6839 26.5587 14 25.7956 14 25V21C14 20.2044 13.6839 19.4413 13.1213 18.8787C12.5587 18.3161 11.7956 18 11 18H3ZM21 18C20.2044 18 19.4413 18.3161 18.8787 18.8787C18.3161 19.4413 18 20.2044 18 21V25C18 25.7956 18.3161 26.5587 18.8787 27.1213C19.4413 27.6839 20.2044 28 21 28H29C29.7956 28 30.5587 27.6839 31.1213 27.1213C31.6839 26.5587 32 25.7956 32 25V21C32 20.2044 31.6839 19.4413 31.1213 18.8787C30.5587 18.3161 29.7956 18 29 18H21Z" fill="#3186F5"/>
</svg>
