<svg width="23" height="23" viewBox="0 0 23 23" fill="none" xmlns="http://www.w3.org/2000/svg">
<g clip-path="url(#clip0_1958_2987)">
<path fill-rule="evenodd" clip-rule="evenodd" d="M11.317 0.761719C11.2947 0.761719 11.2719 0.761719 11.2496 0.761719C8.25196 0.761719 5.36686 1.45588 2.5715 2.85532C1.43792 5.54247 0.797661 8.27412 0.764184 11.0624C0.719082 13.8279 1.29192 16.6601 2.56034 19.549C5.47938 20.814 8.39795 21.4636 11.317 21.497C14.236 21.4636 17.1546 20.814 20.0737 19.549C21.3421 16.6601 21.9149 13.8279 21.8698 11.0624C21.8363 8.27412 21.1961 5.54247 20.0625 2.85532C17.2671 1.45588 14.3816 0.761719 11.3844 0.761719C11.3621 0.761719 11.3393 0.761719 11.317 0.761719Z" fill="#FEFEFE"/>
<path d="M2.09931 2.23921C5.04067 0.739138 8.09408 0 11.2489 0C11.2712 0 11.294 0 11.3163 0C11.3386 0 11.3614 0 11.3837 0C14.5385 0 17.5919 0.739138 20.5333 2.23921L20.7127 2.42932C21.9142 5.25094 22.5986 8.12866 22.6326 11.0509C22.6326 11.1065 22.6326 11.1515 22.6326 11.2076V11.4089C22.6214 14.2194 22.0151 17.0855 20.7127 19.9966L20.5109 20.1867C17.4459 21.5416 14.3809 22.2247 11.3163 22.2581C8.25124 22.2247 5.18667 21.5416 2.12163 20.1867L1.91983 19.9966C0.617472 17.0855 0.0111591 14.2194 0 11.4089V11.2076C0 11.1515 0 11.1065 0 11.0509C0.0339423 8.12866 0.718369 5.25094 1.91983 2.42932L2.09931 2.23921ZM11.3163 0.761395C11.294 0.761395 11.2712 0.761395 11.2489 0.761395C8.25124 0.761395 5.36614 1.45555 2.57078 2.855C1.4372 5.54214 0.796947 8.2738 0.76347 11.062C0.718369 13.8275 1.2912 16.6598 2.55962 19.5487C5.47866 20.8136 8.39724 21.4633 11.3163 21.4967C14.2353 21.4633 17.1539 20.8136 20.0729 19.5487C21.3414 16.6598 21.9142 13.8275 21.8691 11.062C21.8356 8.2738 21.1954 5.54214 20.0618 2.855C17.2664 1.45555 14.3809 0.761395 11.3837 0.761395C11.3614 0.761395 11.3386 0.761395 11.3163 0.761395Z" fill="#003399"/>
<path fill-rule="evenodd" clip-rule="evenodd" d="M11.5192 17.3423C11.3626 15.2042 11.4635 12.9761 10.8237 10.9382C10.2285 9.03468 7.97204 7.94869 7.92694 5.85509C7.8823 4.22054 9.12841 2.32818 11.4635 2.32818C13.6525 2.31705 15.0111 3.90708 15.1683 5.6761C15.3589 7.72472 12.8667 9.10191 12.2158 11.0499C11.542 13.0429 11.7327 15.2487 11.5192 17.3423Z" fill="#003399"/>
<path fill-rule="evenodd" clip-rule="evenodd" d="M12.3832 16.8274C12.293 14.9685 12.293 13.1883 12.8096 11.6099C13.3824 9.81814 14.5723 8.30695 16.3907 7.8145C17.6368 7.47831 19.4669 8.93387 19.1749 10.4228C18.9281 11.621 17.7271 13.0316 15.7961 13.1883C14.8977 13.2667 14.516 13.9836 13.9548 14.3976C16.4693 14.1514 18.0972 13.1661 19.2312 12.1362C19.3995 13.0093 19.512 14.476 18.8272 14.9801C17.4797 15.9316 16.2336 15.159 14.6509 15.607C13.7642 15.8643 13.2136 16.424 12.3832 16.8274Z" fill="#003399"/>
<path fill-rule="evenodd" clip-rule="evenodd" d="M10.6656 16.8274C10.767 14.9685 10.7558 13.1883 10.2504 11.6099C9.67803 9.81814 8.48819 8.30695 6.66925 7.8145C5.42315 7.47831 3.5819 8.93387 3.88505 10.4228C4.13195 11.621 5.33341 13.0316 7.26441 13.1883C8.15109 13.2667 8.54399 13.9836 9.1052 14.3976C6.57952 14.1514 4.96284 13.1661 3.82879 12.1362C3.66047 13.0093 3.54842 14.476 4.23331 14.9801C5.58031 15.9316 6.82641 15.159 8.40915 15.607C9.2963 15.8643 9.83519 16.424 10.6656 16.8274Z" fill="#003399"/>
<path fill-rule="evenodd" clip-rule="evenodd" d="M16.6485 19.5926V19.2907L16.873 19.2346L16.6485 18.8989V18.3388L17.6588 19.7382L17.2994 19.8282L17.0525 19.4809L16.6485 19.5926ZM16.6485 18.3388V18.8989L16.4913 18.675L16.4239 19.3464L16.6485 19.2907V19.5926L16.3899 19.6487L16.3453 20.0633L15.9859 20.1528L16.2216 18.3276L16.581 18.2381L16.6485 18.3388ZM13.3031 20.5668V20.2756H13.3816C13.5048 20.2645 13.5834 20.2534 13.6174 20.2423C13.662 20.2311 13.7071 20.1973 13.7294 20.1639C13.7634 20.1189 13.7745 20.0744 13.7745 20.0183C13.7634 19.9622 13.7517 19.9177 13.7183 19.8838C13.6959 19.8504 13.6508 19.8282 13.6062 19.8166C13.5611 19.8055 13.4602 19.8055 13.3031 19.8166V19.5258C13.3928 19.5258 13.4486 19.5142 13.4714 19.5142C13.5272 19.5031 13.5723 19.4697 13.6062 19.4359C13.6397 19.4025 13.6508 19.3575 13.6397 19.3019C13.6397 19.2458 13.6174 19.2008 13.5834 19.1785C13.5611 19.1451 13.516 19.1224 13.4486 19.1224C13.4263 19.1224 13.3816 19.1224 13.3031 19.134V18.8428C13.4263 18.8317 13.516 18.8317 13.5723 18.8428C13.6397 18.8428 13.7071 18.8651 13.7634 18.8989C13.8192 18.9212 13.8643 18.9657 13.9089 19.0218C13.9428 19.0779 13.9652 19.1451 13.9763 19.2235C13.9875 19.3019 13.9652 19.3802 13.9317 19.4475C13.8977 19.5142 13.8419 19.5704 13.7634 19.6153C13.8754 19.6376 13.9652 19.6826 14.0214 19.7498C14.0888 19.8166 14.1223 19.8949 14.1335 19.996C14.1335 20.0744 14.1223 20.1528 14.1 20.2311C14.0661 20.3095 14.0214 20.3651 13.9652 20.4212C13.8977 20.4662 13.8303 20.4996 13.7406 20.5223C13.6848 20.5335 13.5388 20.5446 13.3254 20.5668H13.3031ZM15.4247 19.6265L15.7725 19.6714C15.7502 19.8616 15.6939 20.0183 15.593 20.13C15.4921 20.2311 15.3461 20.3095 15.1666 20.3429C14.9421 20.3767 14.7398 20.3318 14.5715 20.2089C14.392 20.0744 14.2906 19.8838 14.2348 19.6153C14.1897 19.3353 14.2232 19.1002 14.3469 18.9212C14.4594 18.7417 14.6389 18.63 14.8746 18.585C15.0881 18.5516 15.2564 18.585 15.4135 18.6861C15.5033 18.7417 15.5818 18.8317 15.6381 18.9657L15.3126 19.1002C15.2787 19.0218 15.2224 18.9546 15.155 18.9212C15.0764 18.8762 14.9978 18.8651 14.9081 18.8762C14.7849 18.8989 14.6952 18.9657 14.6277 19.0668C14.5603 19.1785 14.5492 19.3241 14.5826 19.5258C14.6277 19.7382 14.6952 19.8838 14.7849 19.9622C14.8746 20.0405 14.9867 20.0744 15.1104 20.0521C15.2001 20.0294 15.2675 19.9849 15.3238 19.9177C15.3796 19.8504 15.4135 19.7498 15.4247 19.6265ZM13.3031 18.8428V19.134C13.258 19.134 13.2129 19.1451 13.1571 19.1451L12.9548 19.1674L12.9887 19.5592L13.224 19.537C13.2468 19.537 13.2803 19.537 13.3031 19.5258V19.8166C13.3031 19.8166 13.3031 19.8166 13.2914 19.8166L13.0222 19.8393L13.0557 20.2984L13.3031 20.2756V20.5668L12.7414 20.623L12.5842 18.91L13.2691 18.8539C13.2803 18.8428 13.2914 18.8428 13.3031 18.8428ZM11.1363 19.9733V19.6826C11.2149 19.6826 11.2595 19.6714 11.2935 19.6598C11.3381 19.6487 11.3721 19.6153 11.4055 19.5815C11.4279 19.537 11.439 19.492 11.439 19.4475C11.4506 19.3802 11.4279 19.3353 11.3944 19.2907C11.3609 19.2458 11.3158 19.2235 11.2595 19.2119C11.2261 19.2119 11.1921 19.2008 11.1363 19.2008V18.91C11.3046 18.91 11.4055 18.9212 11.4618 18.9434C11.5627 18.9657 11.6413 19.0218 11.7087 19.1113C11.7761 19.2008 11.8096 19.313 11.7984 19.4475C11.7984 19.5481 11.7761 19.6376 11.7422 19.716C11.6975 19.7832 11.6524 19.8393 11.5966 19.8838C11.5292 19.9177 11.473 19.9399 11.4055 19.9622C11.3381 19.9733 11.2484 19.9733 11.1363 19.9733ZM11.1363 18.91V19.2008C11.1024 19.2008 11.0577 19.2008 11.0015 19.2008L10.8332 19.1897V19.6826H11.0126C11.0577 19.6826 11.1024 19.6826 11.1363 19.6826V19.9733C11.1135 19.9733 11.0801 19.9733 11.0466 19.9733H10.822L10.8104 20.623L10.4626 20.6118L10.4961 18.8989L11.0466 18.91C11.0801 18.91 11.1135 18.91 11.1363 18.91ZM7.89181 19.8055V19.2792C7.99271 19.3019 8.06013 19.3019 8.0936 19.3019C8.13871 19.2907 8.17218 19.2792 8.20613 19.2458C8.22844 19.2119 8.25076 19.1785 8.26239 19.1224C8.27355 19.0668 8.26239 19.0218 8.2396 18.9768C8.21728 18.9323 8.17218 18.91 8.11639 18.8873C8.0936 18.8762 8.01503 18.8651 7.89181 18.8428V18.5516L8.03781 18.5739C8.21728 18.6077 8.34096 18.6411 8.41954 18.6861C8.49812 18.7306 8.55392 18.7978 8.58786 18.8873C8.62134 18.9657 8.6325 19.0668 8.61018 19.1674C8.58786 19.2907 8.5316 19.3914 8.44186 19.4586C8.36328 19.5258 8.2396 19.5592 8.08244 19.5592C8.14986 19.6153 8.20613 19.6714 8.2396 19.7271C8.2847 19.7943 8.32934 19.8949 8.3856 20.0405L8.5316 20.4101L8.12755 20.3318L7.94807 19.9177C7.92529 19.8838 7.91413 19.8393 7.89181 19.8055ZM8.87939 18.7417L9.21649 18.7756L9.13791 19.7048C9.12675 19.8504 9.12675 19.9511 9.12675 19.9849C9.13791 20.0633 9.17139 20.1189 9.21649 20.1639C9.27275 20.22 9.34017 20.2423 9.44107 20.2534C9.54197 20.2645 9.62054 20.2423 9.66565 20.2089C9.72144 20.175 9.75538 20.13 9.7777 20.0744C9.78886 20.0183 9.80002 19.9177 9.81118 19.7832L9.89022 18.8317L10.238 18.8651L10.1594 19.7609C10.1483 19.9733 10.126 20.1189 10.092 20.1973C10.0697 20.2756 10.0246 20.354 9.97996 20.399C9.9237 20.4551 9.84512 20.4996 9.75538 20.5223C9.67681 20.5557 9.56428 20.5557 9.42991 20.5446C9.26113 20.5335 9.13791 20.4996 9.05933 20.4551C8.98075 20.4101 8.91334 20.354 8.86823 20.2984C8.8236 20.2311 8.80128 20.1639 8.78965 20.0967C8.7785 19.996 8.7785 19.8504 8.78965 19.6598L8.87939 18.7417ZM6.15145 19.2458L6.21887 18.9657L6.94886 19.1563L6.76892 19.8166C6.67918 19.8727 6.56713 19.9061 6.40997 19.9177C6.26397 19.9288 6.12913 19.9177 5.99429 19.8838C5.81482 19.8393 5.66882 19.7609 5.56792 19.6598C5.4554 19.5481 5.38845 19.4136 5.3545 19.268C5.33219 19.1113 5.33219 18.9546 5.37682 18.7978C5.42192 18.63 5.5005 18.4844 5.61256 18.361C5.71392 18.2493 5.84829 18.182 6.00592 18.1487C6.12913 18.1148 6.27513 18.1259 6.43229 18.1709C6.63455 18.227 6.79171 18.3054 6.88144 18.4283C6.97118 18.5405 7.01628 18.6861 7.00466 18.8428L6.65687 18.8206C6.65687 18.7306 6.63455 18.6522 6.57829 18.585C6.52203 18.5293 6.45461 18.4732 6.35371 18.451C6.20771 18.4171 6.0845 18.4283 5.97198 18.4955C5.85992 18.5627 5.78134 18.6972 5.72508 18.8762C5.66882 19.0779 5.67998 19.2346 5.73624 19.3575C5.80366 19.4809 5.90456 19.5592 6.03939 19.5926C6.11797 19.6153 6.18539 19.6153 6.26397 19.6153C6.34255 19.6042 6.40997 19.5815 6.47739 19.5592L6.53319 19.3464L6.15145 19.2458ZM7.89181 18.5516L7.30782 18.451L7.01628 20.1416L7.35292 20.1973L7.47613 19.492L7.55471 19.5031C7.63376 19.5142 7.68955 19.537 7.72349 19.5481C7.75697 19.5704 7.77929 19.6042 7.81323 19.6376C7.82439 19.6714 7.85787 19.7271 7.89181 19.8055V19.2792C7.85787 19.2792 7.82439 19.268 7.77929 19.268L7.53239 19.2235L7.59981 18.7978L7.86949 18.8428C7.88065 18.8428 7.89181 18.8428 7.89181 18.8428V18.5516Z" fill="#003399"/>
</g>
<defs>
<clipPath id="clip0_1958_2987">
<rect width="23" height="22.2581" fill="white"/>
</clipPath>
</defs>
</svg>
