<svg width="23" height="22" viewBox="0 0 23 22" fill="none" xmlns="http://www.w3.org/2000/svg">
<g clip-path="url(#clip0_1958_2981)">
<path fill-rule="evenodd" clip-rule="evenodd" d="M0.34375 3.16418C0.34375 1.41871 1.7775 0.00390625 3.54605 0.00390625H19.475C21.2438 0.00390625 22.6773 1.41871 22.6773 3.16418V18.8829C22.6773 20.6281 21.2438 22.0429 19.475 22.0429H3.54605C1.7775 22.0429 0.34375 20.6281 0.34375 18.8829V3.16418ZM4.2398 19.8835C3.29677 19.8835 2.53204 19.1289 2.53204 18.198V3.85393C2.53204 2.92307 3.29677 2.16874 4.2398 2.16874H6.18812C8.75514 2.16874 10.656 4.73542 9.01432 6.35804L4.25086 11.0649L8.33889 15.2909C10.321 17.3398 8.00002 19.8835 5.80067 19.8835H4.2398ZM10.4216 2.16874H12.068C14.635 2.16874 16.5362 4.73542 14.8942 6.35804L10.1307 11.0649L18.8874 19.8801L9.6464 19.8784C11.6322 19.8784 12.8856 16.582 10.7605 14.3988L7.51541 11.0649L11.2934 7.22203C13.3275 5.15249 11.851 2.49022 10.4216 2.16874ZM20.4869 18.198L13.3956 11.0649L17.1732 7.22203C19.2076 5.15249 17.7308 2.49022 16.3017 2.16874H18.7757C19.719 2.16874 20.4837 2.92307 20.4837 3.85393L20.4869 18.198Z" fill="#1F4396"/>
</g>
<defs>
<clipPath id="clip0_1958_2981">
<rect width="23" height="22" fill="white"/>
</clipPath>
</defs>
</svg>
