<svg width="20" height="20" viewBox="0 0 20 20" fill="none" xmlns="http://www.w3.org/2000/svg">
<path d="M1.84999 1.84998C1.7443 1.95571 1.68 2.09581 1.66876 2.24488C1.65752 2.39395 1.70009 2.54211 1.78874 2.66248L1.84999 2.73373L5.21249 6.09623C3.57325 7.24489 2.40297 8.94593 1.91624 10.8875C1.8804 11.0468 1.9083 11.2137 1.99398 11.3527C2.07965 11.4917 2.2163 11.5916 2.3747 11.6311C2.5331 11.6706 2.70067 11.6466 2.84159 11.5642C2.9825 11.4817 3.08556 11.3474 3.12874 11.19C3.56095 9.46678 4.62564 7.96926 6.11124 6.99498L7.61999 8.50373C7.01477 9.13287 6.68047 9.9743 6.68893 10.8472C6.69738 11.7202 7.04791 12.555 7.66521 13.1723C8.2825 13.7896 9.11729 14.1401 9.99024 14.1485C10.8632 14.157 11.7046 13.8227 12.3337 13.2175L17.2662 18.15C17.3778 18.2611 17.5271 18.326 17.6844 18.3317C17.8417 18.3375 17.9954 18.2837 18.1147 18.181C18.2341 18.0784 18.3103 17.9346 18.3282 17.7782C18.3461 17.6218 18.3043 17.4644 18.2112 17.3375L18.15 17.2662L13.0562 12.1712V12.17L12.0562 11.1712L9.66499 8.77998H9.66624L7.26624 6.38123V6.37998L6.32249 5.43748L2.73374 1.84998C2.61653 1.73281 2.45759 1.66699 2.29186 1.66699C2.12614 1.66699 1.96719 1.73281 1.84999 1.84998ZM8.50374 9.38748L11.4487 12.3337C11.0554 12.7113 10.5297 12.9197 9.98445 12.9141C9.43922 12.9085 8.9179 12.6894 8.53234 12.3039C8.14679 11.9183 7.92772 11.397 7.92214 10.8518C7.91655 10.3065 8.12491 9.78085 8.50249 9.38748H8.50374ZM9.99999 4.58373C9.16624 4.58373 8.35749 4.70623 7.59249 4.93748L8.62374 5.96748C10.4068 5.6143 12.2573 5.95978 13.7928 6.93249C15.3283 7.9052 16.4313 9.43075 16.8737 11.1937C16.9169 11.3512 17.02 11.4855 17.1609 11.5679C17.3018 11.6503 17.4694 11.6744 17.6278 11.6349C17.7862 11.5953 17.9228 11.4954 18.0085 11.3564C18.0942 11.2175 18.1221 11.0505 18.0862 10.8912C17.6341 9.0891 16.5928 7.48967 15.1278 6.34692C13.6628 5.20417 11.858 4.58359 9.99999 4.58373ZM10.1625 7.50873L13.33 10.675C13.2894 9.84802 12.9427 9.06573 12.3572 8.48027C11.7717 7.89482 10.9895 7.54807 10.1625 7.50748V7.50873Z" fill="#3186F5"/>
</svg>
