<svg width="35" height="35" viewBox="0 0 35 35" fill="none" xmlns="http://www.w3.org/2000/svg">
<path d="M19.5563 17.5001L25.8271 11.2439C26.1017 10.9692 26.256 10.5968 26.256 10.2084C26.256 9.82008 26.1017 9.44763 25.8271 9.17302C25.5525 8.89841 25.1801 8.74414 24.7917 8.74414C24.4033 8.74414 24.0309 8.89841 23.7563 9.17302L17.5 15.4439L11.2438 9.17302C10.9692 8.89841 10.5967 8.74414 10.2084 8.74414C9.82001 8.74414 9.44756 8.89841 9.17295 9.17302C8.89834 9.44763 8.74407 9.82008 8.74407 10.2084C8.74407 10.5968 8.89834 10.9692 9.17295 11.2439L15.4438 17.5001L9.17295 23.7564C9.03626 23.8919 8.92777 24.0532 8.85373 24.2309C8.7797 24.4086 8.74158 24.5993 8.74158 24.7918C8.74158 24.9843 8.7797 25.1749 8.85373 25.3526C8.92777 25.5303 9.03626 25.6916 9.17295 25.8272C9.30852 25.9639 9.46981 26.0724 9.64753 26.1464C9.82524 26.2204 10.0158 26.2586 10.2084 26.2586C10.4009 26.2586 10.5915 26.2204 10.7692 26.1464C10.9469 26.0724 11.1082 25.9639 11.2438 25.8272L17.5 19.5564L23.7563 25.8272C23.8919 25.9639 24.0531 26.0724 24.2309 26.1464C24.4086 26.2204 24.5992 26.2586 24.7917 26.2586C24.9842 26.2586 25.1748 26.2204 25.3525 26.1464C25.5303 26.0724 25.6915 25.9639 25.8271 25.8272C25.9638 25.6916 26.0723 25.5303 26.1463 25.3526C26.2204 25.1749 26.2585 24.9843 26.2585 24.7918C26.2585 24.5993 26.2204 24.4086 26.1463 24.2309C26.0723 24.0532 25.9638 23.8919 25.8271 23.7564L19.5563 17.5001Z" fill="#3186F5"/>
</svg>
