<svg width="12" height="12" viewBox="0 0 12 12" fill="none" xmlns="http://www.w3.org/2000/svg">
<path d="M6 0.75C7.39239 0.75 8.72774 1.30312 9.71231 2.28769C10.6969 3.27226 11.25 4.60761 11.25 6C11.25 7.39239 10.6969 8.72774 9.71231 9.71231C8.72774 10.6969 7.39239 11.25 6 11.25C4.60761 11.25 3.27226 10.6969 2.28769 9.71231C1.30312 8.72774 0.75 7.39239 0.75 6C0.75 4.60761 1.30312 3.27226 2.28769 2.28769C3.27226 1.30312 4.60761 0.75 6 0.75ZM6 3C5.90478 2.99992 5.81059 3.0197 5.72345 3.05807C5.6363 3.09645 5.55812 3.15258 5.49389 3.22288C5.42966 3.29317 5.3808 3.37609 5.35043 3.46634C5.32006 3.55659 5.30884 3.65217 5.3175 3.747L5.59125 6.7515C5.60186 6.85251 5.6495 6.94602 5.72498 7.01398C5.80046 7.08194 5.89843 7.11955 6 7.11955C6.10157 7.11955 6.19954 7.08194 6.27502 7.01398C6.3505 6.94602 6.39814 6.85251 6.40875 6.7515L6.68175 3.747C6.6904 3.65224 6.67921 3.55671 6.64888 3.46652C6.61855 3.37632 6.56976 3.29344 6.50561 3.22315C6.44147 3.15287 6.36337 3.09672 6.27632 3.0583C6.18926 3.01988 6.09516 3.00002 6 3ZM6 9C6.15913 9 6.31174 8.93679 6.42426 8.82426C6.53679 8.71174 6.6 8.55913 6.6 8.4C6.6 8.24087 6.53679 8.08826 6.42426 7.97574C6.31174 7.86321 6.15913 7.8 6 7.8C5.84087 7.8 5.68826 7.86321 5.57574 7.97574C5.46321 8.08826 5.4 8.24087 5.4 8.4C5.4 8.55913 5.46321 8.71174 5.57574 8.82426C5.68826 8.93679 5.84087 9 6 9Z" fill="#F24E1E"/>
</svg>
