<svg width="28" height="28" viewBox="0 0 28 28" fill="none" xmlns="http://www.w3.org/2000/svg">
<path d="M12.8334 10.4997H15.1667V8.16634H12.8334M14 23.333C8.85504 23.333 4.66671 19.1447 4.66671 13.9997C4.66671 8.85468 8.85504 4.66634 14 4.66634C19.145 4.66634 23.3334 8.85468 23.3334 13.9997C23.3334 19.1447 19.145 23.333 14 23.333ZM14 2.33301C12.468 2.33301 10.9509 2.63478 9.5354 3.22108C8.11994 3.80738 6.83381 4.66675 5.75046 5.7501C3.56254 7.93802 2.33337 10.9055 2.33337 13.9997C2.33337 17.0939 3.56254 20.0613 5.75046 22.2493C6.83381 23.3326 8.11994 24.192 9.5354 24.7783C10.9509 25.3646 12.468 25.6663 14 25.6663C17.0942 25.6663 20.0617 24.4372 22.2496 22.2493C24.4375 20.0613 25.6667 17.0939 25.6667 13.9997C25.6667 12.4676 25.3649 10.9505 24.7786 9.53503C24.1923 8.11957 23.333 6.83345 22.2496 5.7501C21.1663 4.66675 19.8801 3.80738 18.4647 3.22108C17.0492 2.63478 15.5321 2.33301 14 2.33301ZM12.8334 19.833H15.1667V12.833H12.8334V19.833Z" fill="#F5F5F5"/>
</svg>
