<svg width="23" height="22" viewBox="0 0 23 22" fill="none" xmlns="http://www.w3.org/2000/svg">
<path d="M11.5616 1.00781C17.3935 1.00781 22.1218 5.57124 22.1218 11.1997C22.1218 16.8282 17.3935 21.3917 11.5616 21.3917C5.72831 21.3917 1 16.8282 1 11.1997C1 5.57124 5.72831 1.00781 11.5616 1.00781V1.00781Z" fill="#00AED6"/>
<path fill-rule="evenodd" clip-rule="evenodd" d="M17.7238 10.8906C17.6427 9.59282 16.4991 8.59823 15.1535 8.65674H8.48257C8.23924 8.65674 8.04245 8.46659 8.04245 8.23124C8.04245 7.99722 8.23924 7.80708 8.48257 7.80708H15.2413C15.2027 6.92816 14.5804 6.17291 13.7015 5.93889C11.731 5.59849 9.71384 5.59849 7.74327 5.93889C6.62369 6.20482 5.78599 7.10368 5.63175 8.20598C5.32327 10.2058 5.32327 12.2375 5.63175 14.236C5.8671 15.4035 6.82713 16.3063 8.04245 16.5045C10.485 16.801 12.9569 16.801 15.3995 16.5045C16.4885 16.2917 17.3116 15.4287 17.4419 14.3637C17.6653 13.2188 17.7597 12.054 17.7238 10.8906V10.8906ZM15.5232 12.3173V12.691C15.5232 12.925 15.3264 13.1151 15.083 13.1151C14.8397 13.1151 14.6429 12.925 14.6429 12.691V12.3173C14.5007 12.1976 14.4209 12.0235 14.4235 11.8413C14.4235 11.4889 14.7187 11.2044 15.083 11.2044C15.4474 11.2044 15.7426 11.4889 15.7426 11.8413C15.7412 12.0221 15.6615 12.195 15.5232 12.3173V12.3173Z" fill="white"/>
</svg>
