<svg width="26" height="25" viewBox="0 0 26 25" fill="none" xmlns="http://www.w3.org/2000/svg">
<path d="M25.0915 22.192C24.2879 21.4756 23.5844 20.6544 22.9998 19.7503C22.3617 18.5024 21.9792 17.1397 21.8748 15.742V11.6253C21.8804 9.43 21.084 7.30822 19.6355 5.65864C18.1869 4.00905 16.1858 2.94521 14.0082 2.66699V1.59199C14.0082 1.29694 13.891 1.01397 13.6823 0.805336C13.4737 0.596702 13.1907 0.479492 12.8957 0.479492C12.6006 0.479492 12.3176 0.596702 12.109 0.805336C11.9004 1.01397 11.7832 1.29694 11.7832 1.59199V2.68366C9.62505 2.98193 7.64815 4.05221 6.21861 5.69625C4.78908 7.34029 4.00378 9.4467 4.00817 11.6253V15.742C3.9038 17.1397 3.52132 18.5024 2.88317 19.7503C2.30891 20.6523 1.61667 21.4734 0.824837 22.192C0.735947 22.2701 0.664705 22.3662 0.615852 22.474C0.566998 22.5817 0.541654 22.6987 0.541504 22.817V23.9503C0.541504 24.1713 0.629301 24.3833 0.785582 24.5396C0.941862 24.6959 1.15382 24.7837 1.37484 24.7837H24.5415C24.7625 24.7837 24.9745 24.6959 25.1308 24.5396C25.287 24.3833 25.3748 24.1713 25.3748 23.9503V22.817C25.3747 22.6987 25.3493 22.5817 25.3005 22.474C25.2516 22.3662 25.1804 22.2701 25.0915 22.192ZM2.27484 23.117C3.05018 22.368 3.73284 21.5287 4.30817 20.617C5.11201 19.1099 5.58103 17.447 5.68317 15.742V11.6253C5.65012 10.6487 5.81394 9.67539 6.16487 8.76338C6.51581 7.85137 7.04668 7.01931 7.72588 6.31674C8.40507 5.61417 9.2187 5.05546 10.1183 4.67389C11.0179 4.29231 11.9851 4.09566 12.9623 4.09566C13.9395 4.09566 14.9067 4.29231 15.8064 4.67389C16.706 5.05546 17.5196 5.61417 18.1988 6.31674C18.878 7.01931 19.4089 7.85137 19.7598 8.76338C20.1107 9.67539 20.2746 10.6487 20.2415 11.6253V15.742C20.3436 17.447 20.8127 19.1099 21.6165 20.617C22.1918 21.5287 22.8745 22.368 23.6498 23.117H2.27484Z" fill="#3186F5"/>
</svg>
