<svg width="56" height="56" viewBox="0 0 56 56" fill="none" xmlns="http://www.w3.org/2000/svg">
<path d="M51.0625 29V50.875C51.0625 52.0353 50.6016 53.1481 49.7811 53.9686C48.9606 54.7891 47.8478 55.25 46.6875 55.25H5.125C3.96468 55.25 2.85188 54.7891 2.03141 53.9686C1.21094 53.1481 0.75 52.0353 0.75 50.875V9.3125C0.75 8.15218 1.21094 7.03938 2.03141 6.21891C2.85188 5.39844 3.96468 4.9375 5.125 4.9375H27C27.5802 4.9375 28.1366 5.16797 28.5468 5.5782C28.957 5.98844 29.1875 6.54484 29.1875 7.125C29.1875 7.70516 28.957 8.26156 28.5468 8.6718C28.1366 9.08203 27.5802 9.3125 27 9.3125H5.125V50.875H46.6875V29C46.6875 28.4198 46.918 27.8634 47.3282 27.4532C47.7384 27.043 48.2948 26.8125 48.875 26.8125C49.4552 26.8125 50.0116 27.043 50.4218 27.4532C50.832 27.8634 51.0625 28.4198 51.0625 29ZM45.5938 0.5625C43.6468 0.5625 41.7436 1.13983 40.1249 2.22147C38.5061 3.30312 37.2444 4.8405 36.4993 6.63921C35.7543 8.43792 35.5593 10.4172 35.9391 12.3267C36.319 14.2362 37.2565 15.9902 38.6332 17.3668C40.0098 18.7435 41.7638 19.681 43.6733 20.0609C45.5828 20.4407 47.5621 20.2457 49.3608 19.5007C51.1595 18.7556 52.6969 17.4939 53.7785 15.8751C54.8602 14.2563 55.4375 12.3532 55.4375 10.4062C55.4375 7.79553 54.4004 5.29173 52.5543 3.44567C50.7083 1.59961 48.2045 0.5625 45.5938 0.5625Z" fill="#3186F5"/>
</svg>
