<svg width="30" height="30" viewBox="0 0 30 30" fill="none" xmlns="http://www.w3.org/2000/svg">
<path d="M3.75 17.5L4.375 17.5875L10.0875 11.875C9.97289 11.4553 9.97272 11.0125 10.087 10.5926C10.2013 10.1728 10.4259 9.79122 10.7375 9.4875C11.7125 8.5 13.2875 8.5 14.2625 9.4875C14.925 10.1375 15.1375 11.0625 14.9125 11.875L18.125 15.0875L18.75 15C18.975 15 19.1875 15 19.375 15.0875L23.8375 10.625C23.75 10.4375 23.75 10.225 23.75 10C23.75 9.33696 24.0134 8.70107 24.4822 8.23223C24.9511 7.76339 25.587 7.5 26.25 7.5C26.913 7.5 27.5489 7.76339 28.0178 8.23223C28.4866 8.70107 28.75 9.33696 28.75 10C28.75 10.663 28.4866 11.2989 28.0178 11.7678C27.5489 12.2366 26.913 12.5 26.25 12.5C26.025 12.5 25.8125 12.5 25.625 12.4125L21.1625 16.875C21.25 17.0625 21.25 17.275 21.25 17.5C21.25 18.163 20.9866 18.7989 20.5178 19.2678C20.0489 19.7366 19.413 20 18.75 20C18.087 20 17.4511 19.7366 16.9822 19.2678C16.5134 18.7989 16.25 18.163 16.25 17.5L16.3375 16.875L13.125 13.6625C12.725 13.75 12.275 13.75 11.875 13.6625L6.1625 19.375L6.25 20C6.25 20.663 5.98661 21.2989 5.51777 21.7678C5.04893 22.2366 4.41304 22.5 3.75 22.5C3.08696 22.5 2.45107 22.2366 1.98223 21.7678C1.51339 21.2989 1.25 20.663 1.25 20C1.25 19.337 1.51339 18.7011 1.98223 18.2322C2.45107 17.7634 3.08696 17.5 3.75 17.5Z" fill="#3186F5"/>
</svg>
