<svg width="14" height="23" viewBox="0 0 14 23" fill="none" xmlns="http://www.w3.org/2000/svg">
<path d="M13.068 0.494077C13.3843 0.81053 13.5621 1.23967 13.5621 1.68714C13.5621 2.1346 13.3843 2.56375 13.068 2.8802L4.71487 11.2333L13.068 19.5865C13.3754 19.9047 13.5455 20.331 13.5416 20.7734C13.5378 21.2159 13.3603 21.6391 13.0474 21.952C12.7346 22.2649 12.3113 22.4424 11.8689 22.4462C11.4264 22.4501 11.0001 22.28 10.6819 21.9726L1.13568 12.4264C0.819321 12.1099 0.641602 11.6808 0.641602 11.2333C0.641602 10.7859 0.819321 10.3567 1.13568 10.0403L10.6819 0.494077C10.9983 0.17772 11.4275 0 11.8749 0C12.3224 0 12.7515 0.17772 13.068 0.494077V0.494077Z" fill="#F5F5F5"/>
</svg>
