<svg width="14" height="23" viewBox="0 0 14 23" fill="none" xmlns="http://www.w3.org/2000/svg">
<path d="M0.932066 0.494077C0.615708 0.81053 0.437988 1.23967 0.437988 1.68714C0.437988 2.1346 0.615708 2.56375 0.932066 2.8802L9.28519 11.2333L0.932066 19.5865C0.624674 19.9047 0.454583 20.331 0.458428 20.7734C0.462272 21.2159 0.639745 21.6391 0.952622 21.952C1.2655 22.2649 1.68874 22.4424 2.1312 22.4462C2.57366 22.4501 2.99992 22.28 3.31819 21.9726L12.8644 12.4264C13.1807 12.1099 13.3585 11.6808 13.3585 11.2333C13.3585 10.7859 13.1807 10.3567 12.8644 10.0403L3.31819 0.494077C3.00174 0.17772 2.57259 0 2.12513 0C1.67766 0 1.24852 0.17772 0.932066 0.494077V0.494077Z" fill="#F5F5F5"/>
</svg>
