<svg width="28" height="28" viewBox="0 0 28 28" fill="none" xmlns="http://www.w3.org/2000/svg">
<path d="M0.949609 0.74199C0.780501 0.911146 0.677625 1.13531 0.659645 1.37383C0.641665 1.61234 0.709771 1.84939 0.851609 2.04199L0.949609 2.15599L6.32961 7.53599C3.70682 9.37384 1.83438 12.0955 1.05561 15.202C0.998264 15.4568 1.04291 15.724 1.17999 15.9463C1.31707 16.1687 1.53571 16.3286 1.78915 16.3918C2.04259 16.455 2.31071 16.4166 2.53617 16.2847C2.76163 16.1528 2.92653 15.9379 2.99561 15.686C3.68715 12.9289 5.39065 10.5328 7.76761 8.97399L10.1816 11.388C9.21326 12.3946 8.67839 13.7409 8.69191 15.1376C8.70544 16.5343 9.26629 17.87 10.254 18.8576C11.2416 19.8453 12.5773 20.4062 13.974 20.4197C15.3707 20.4332 16.717 19.8983 17.7236 18.93L25.6156 26.822C25.7941 26.9997 26.033 27.1035 26.2847 27.1128C26.5364 27.122 26.7822 27.0359 26.9732 26.8717C27.1642 26.7075 27.2862 26.4773 27.3148 26.2271C27.3434 25.9769 27.2766 25.7251 27.1276 25.522L27.0296 25.408L18.8796 17.256V17.254L17.2796 15.656L13.4536 11.83H13.4556L9.61561 7.99199V7.98999L8.10561 6.48199L2.36361 0.74199C2.17608 0.554519 1.92177 0.449203 1.65661 0.449203C1.39144 0.449203 1.13714 0.554519 0.949609 0.74199ZM11.5956 12.802L16.3076 17.516C15.6782 18.1201 14.8371 18.4535 13.9647 18.4446C13.0924 18.4356 12.2583 18.0851 11.6414 17.4682C11.0245 16.8513 10.674 16.0172 10.665 15.1449C10.6561 14.2725 10.9895 13.4314 11.5936 12.802H11.5956ZM13.9896 5.11599C12.6556 5.11599 11.3616 5.31199 10.1376 5.68199L11.7876 7.32999C14.6404 6.7649 17.6013 7.31766 20.0581 8.874C22.5149 10.4303 24.2797 12.8712 24.9876 15.692C25.0567 15.9439 25.2216 16.1588 25.4471 16.2907C25.6725 16.4226 25.9406 16.461 26.1941 16.3978C26.4475 16.3346 26.6662 16.1747 26.8032 15.9523C26.9403 15.73 26.985 15.4628 26.9276 15.208C26.2041 12.3246 24.5381 9.76549 22.1941 7.93709C19.8501 6.10868 16.9624 5.11577 13.9896 5.11599ZM14.2496 9.79599L19.3176 14.862C19.2527 13.5389 18.6979 12.2872 17.7611 11.3505C16.8244 10.4137 15.5727 9.85893 14.2496 9.79399V9.79599Z" fill="#B3B3B3"/>
</svg>
