<svg width="26" height="26" viewBox="0 0 26 26" fill="none" xmlns="http://www.w3.org/2000/svg">
<path d="M15.9375 12.9997L24.8958 4.06224C25.2881 3.66994 25.5085 3.13786 25.5085 2.58307C25.5085 2.02827 25.2881 1.4962 24.8958 1.1039C24.5035 0.711603 23.9715 0.491211 23.4167 0.491211C22.8619 0.491211 22.3298 0.711603 21.9375 1.1039L13 10.0622L4.0625 1.1039C3.6702 0.711603 3.13812 0.491211 2.58333 0.491211C2.02853 0.491211 1.49646 0.711603 1.10416 1.1039C0.711862 1.4962 0.49147 2.02827 0.49147 2.58307C0.49147 3.13786 0.711862 3.66994 1.10416 4.06224L10.0625 12.9997L1.10416 21.9372C0.908894 22.1309 0.753906 22.3613 0.648138 22.6152C0.54237 22.8691 0.487915 23.1414 0.487915 23.4164C0.487915 23.6914 0.54237 23.9637 0.648138 24.2176C0.753906 24.4715 0.908894 24.7019 1.10416 24.8956C1.29783 25.0908 1.52825 25.2458 1.78213 25.3516C2.036 25.4574 2.3083 25.5118 2.58333 25.5118C2.85835 25.5118 3.13066 25.4574 3.38453 25.3516C3.6384 25.2458 3.86882 25.0908 4.0625 24.8956L13 15.9372L21.9375 24.8956C22.1312 25.0908 22.3616 25.2458 22.6155 25.3516C22.8693 25.4574 23.1416 25.5118 23.4167 25.5118C23.6917 25.5118 23.964 25.4574 24.2179 25.3516C24.4717 25.2458 24.7022 25.0908 24.8958 24.8956C25.0911 24.7019 25.2461 24.4715 25.3519 24.2176C25.4576 23.9637 25.5121 23.6914 25.5121 23.4164C25.5121 23.1414 25.4576 22.8691 25.3519 22.6152C25.2461 22.3613 25.0911 22.1309 24.8958 21.9372L15.9375 12.9997Z" fill="#F5F5F5"/>
</svg>
