<svg width="26" height="19" viewBox="0 0 26 19" fill="none" xmlns="http://www.w3.org/2000/svg">
<path d="M16.75 17.5V15H21.75V17.5H16.75ZM16.75 7.5V5H25.5V7.5H16.75ZM16.75 12.5V10H24.25V12.5H16.75ZM1.75 5H0.5V2.5H5.5V0.625H10.5V2.5H15.5V5H14.25V16.25C14.25 16.9375 14.0054 17.5263 13.5163 18.0163C13.0262 18.5054 12.4375 18.75 11.75 18.75H4.25C3.5625 18.75 2.97375 18.5054 2.48375 18.0163C1.99458 17.5263 1.75 16.9375 1.75 16.25V5ZM4.25 5V16.25H11.75V5H4.25ZM4.25 5V16.25V5Z" fill="#CF4242"/>
</svg>
