<svg width="24" height="20" viewBox="0 0 24 20" fill="none" xmlns="http://www.w3.org/2000/svg">
<path d="M12 19.25V16.5938L18.625 9.96875L21.2812 12.625L14.6562 19.25H12ZM0.75 13V10.5H9.5V13H0.75ZM22.1562 11.75L19.5 9.09375L20.4062 8.1875C20.6354 7.95833 20.9271 7.84375 21.2812 7.84375C21.6354 7.84375 21.9271 7.95833 22.1562 8.1875L23.0625 9.09375C23.2917 9.32292 23.4062 9.61458 23.4062 9.96875C23.4062 10.3229 23.2917 10.6146 23.0625 10.8438L22.1562 11.75ZM0.75 8V5.5H14.5V8H0.75ZM0.75 3V0.5H14.5V3H0.75Z" fill="#71D050"/>
</svg>
