<svg width="24" height="24" viewBox="0 0 24 24" fill="none" xmlns="http://www.w3.org/2000/svg">
<path d="M4.41999 20.5787C4.28125 20.5784 4.14408 20.5493 4.0172 20.4932C3.89031 20.4371 3.7765 20.3552 3.68299 20.2527C3.58779 20.151 3.51514 20.0304 3.46982 19.8988C3.42449 19.7671 3.40751 19.6274 3.41999 19.4887L3.66499 16.7947L14.983 5.48066L18.52 9.01666L7.20499 20.3297L4.51099 20.5747C4.48074 20.5775 4.45037 20.5788 4.41999 20.5787ZM19.226 8.30966L15.69 4.77366L17.811 2.65266C17.9039 2.55969 18.0142 2.48593 18.1355 2.4356C18.2569 2.38528 18.3871 2.35938 18.5185 2.35938C18.6499 2.35938 18.78 2.38528 18.9014 2.4356C19.0228 2.48593 19.1331 2.55969 19.226 2.65266L21.347 4.77366C21.44 4.86653 21.5137 4.97682 21.5641 5.09822C21.6144 5.21962 21.6403 5.34975 21.6403 5.48116C21.6403 5.61258 21.6144 5.7427 21.5641 5.8641C21.5137 5.9855 21.44 6.09579 21.347 6.18866L19.227 8.30866L19.226 8.30966Z" fill="#3186F5"/>
</svg>
