<svg width="29" height="21" viewBox="0 0 29 21" fill="none" xmlns="http://www.w3.org/2000/svg">
<path d="M26.7353 0.0648804H2.18513C1.64254 0.0648804 1.12217 0.280424 0.738497 0.664095C0.354826 1.04777 0.139282 1.56814 0.139282 2.11073V18.4775C0.139282 19.0201 0.354826 19.5405 0.738497 19.9241C1.12217 20.3078 1.64254 20.5234 2.18513 20.5234H26.7353C27.2779 20.5234 27.7983 20.3078 28.1819 19.9241C28.5656 19.5405 28.7811 19.0201 28.7811 18.4775V2.11073C28.7811 1.56814 28.5656 1.04777 28.1819 0.664095C27.7983 0.280424 27.2779 0.0648804 26.7353 0.0648804V0.0648804ZM24.4849 2.11073L14.4602 9.04615L4.43556 2.11073H24.4849ZM2.18513 18.4775V3.04159L13.8771 11.1329C14.0484 11.2517 14.2518 11.3154 14.4602 11.3154C14.6686 11.3154 14.872 11.2517 15.0433 11.1329L26.7353 3.04159V18.4775H2.18513Z" fill="black"/>
</svg>
