<svg width="35" height="35" viewBox="0 0 35 35" fill="none" xmlns="http://www.w3.org/2000/svg">
<path d="M29.2396 17.666H5.76042C4.99527 17.666 4.375 18.2863 4.375 19.0514V19.1973C4.375 19.9624 4.99527 20.5827 5.76042 20.5827H29.2396C30.0047 20.5827 30.625 19.9624 30.625 19.1973V19.0514C30.625 18.2863 30.0047 17.666 29.2396 17.666Z" fill="#3186F5"/>
<path d="M29.2396 26.583H5.76042C4.99527 26.583 4.375 27.2033 4.375 27.9684V28.1143C4.375 28.8794 4.99527 29.4997 5.76042 29.4997H29.2396C30.0047 29.4997 30.625 28.8794 30.625 28.1143V27.9684C30.625 27.2033 30.0047 26.583 29.2396 26.583Z" fill="#3186F5"/>
<path d="M29.2396 8.75H5.76042C4.99527 8.75 4.375 9.37027 4.375 10.1354V10.2813C4.375 11.0464 4.99527 11.6667 5.76042 11.6667H29.2396C30.0047 11.6667 30.625 11.0464 30.625 10.2813V10.1354C30.625 9.37027 30.0047 8.75 29.2396 8.75Z" fill="#3186F5"/>
</svg>
