<svg width="30" height="30" viewBox="0 0 30 30" fill="none" xmlns="http://www.w3.org/2000/svg">
<path d="M18.75 3.75H15V6.25H18.75V26.25H6.25V6.25H10V3.75H6.25C5.58696 3.75 4.95107 4.01339 4.48223 4.48223C4.01339 4.95107 3.75 5.58696 3.75 6.25V26.25C3.75 26.913 4.01339 27.5489 4.48223 28.0178C4.95107 28.4866 5.58696 28.75 6.25 28.75H18.75C19.413 28.75 20.0489 28.4866 20.5178 28.0178C20.9866 27.5489 21.25 26.913 21.25 26.25V6.25C21.25 5.58696 20.9866 4.95107 20.5178 4.48223C20.0489 4.01339 19.413 3.75 18.75 3.75ZM12.5 8.75C13.163 8.75 13.7989 9.01339 14.2678 9.48223C14.7366 9.95107 15 10.587 15 11.25C15 11.913 14.7366 12.5489 14.2678 13.0178C13.7989 13.4866 13.163 13.75 12.5 13.75C11.837 13.75 11.2011 13.4866 10.7322 13.0178C10.2634 12.5489 10 11.913 10 11.25C10 10.587 10.2634 9.95107 10.7322 9.48223C11.2011 9.01339 11.837 8.75 12.5 8.75ZM17.5 18.75H7.5V17.5C7.5 15.8375 10.8375 15 12.5 15C14.1625 15 17.5 15.8375 17.5 17.5V18.75ZM17.5 22.5H7.5V21.25H17.5V22.5ZM12.5 25H7.5V23.75H12.5V25ZM13.75 6.25H11.25V1.25H13.75V6.25ZM23.75 16.25V8.75H26.25V16.25H23.75ZM23.75 21.25V18.75H26.25V21.25H23.75Z" fill="#F5F5F5"/>
</svg>
