<svg width="23" height="21" viewBox="0 0 23 21" fill="none" xmlns="http://www.w3.org/2000/svg">
<path fill-rule="evenodd" clip-rule="evenodd" d="M2.5478 3.95505H20.5369C21.7322 3.95505 22.7101 4.93298 22.7101 6.12823V18.7206C22.7101 19.9159 21.7322 20.8938 20.5369 20.8938H2.02865C0.8334 20.8938 -0.144531 19.9159 -0.144531 18.7206V3.17029C-0.144531 2.60285 0.326325 2.2165 0.881693 2.14407L17.4703 0.03125C18.0378 0.03125 18.4965 0.490033 18.4965 1.05747V2.82017H1.5095C1.5095 3.55663 1.72682 3.96712 2.5478 3.96712V3.95505ZM12.641 17.7427C11.1319 18.0324 9.18808 17.5254 8.12563 16.3905C7.6427 15.8834 8.41539 15.0986 8.89832 15.6178C9.61064 16.3784 10.8783 16.7406 11.9166 16.7165C13.2326 16.6923 14.4158 15.485 13.6552 14.1449C12.6169 12.2856 10.0573 12.8047 8.75344 11.3559C7.691 10.1848 8.19807 8.32556 9.44161 7.50458C10.7455 6.64738 12.9911 6.6836 14.0536 7.903C14.5124 8.43422 13.7397 9.2069 13.2809 8.67568C12.4116 7.68568 10.3713 7.81848 9.59857 8.84471C8.48783 10.3056 10.1539 11.0903 11.313 11.4405C12.9066 11.9234 14.6693 12.8047 14.9591 14.6278C15.1885 16.1007 14.0536 17.465 12.641 17.7427Z" fill="#EE4E2C"/>
<path fill-rule="evenodd" clip-rule="evenodd" d="M12.6292 17.7539C11.1201 18.0437 9.17628 17.5366 8.11383 16.4017C7.6309 15.8946 8.40359 15.1099 8.88652 15.629C9.59884 16.3896 10.8665 16.7518 11.9048 16.7277C13.2208 16.7035 14.404 15.4962 13.6434 14.1561C12.6051 12.2968 10.0455 12.816 8.74164 11.3672C7.6792 10.1961 8.18627 8.3368 9.42982 7.51582C10.7337 6.65862 12.9793 6.69484 14.0418 7.91424C14.5006 8.44546 13.7279 9.21815 13.2691 8.68692C12.3998 7.69692 10.3595 7.82972 9.58677 8.85595C8.47603 10.3168 10.1421 11.1016 11.3012 11.4517C12.8948 11.9346 14.6575 12.816 14.9594 14.639C15.1887 16.112 14.0539 17.4762 12.6413 17.7539H12.6292Z" fill="#FEFEFE"/>
</svg>
