<svg width="24" height="24" viewBox="0 0 24 24" fill="none" xmlns="http://www.w3.org/2000/svg">
<path d="M4.19844 3.59961C3.72105 3.59961 3.26321 3.78925 2.92565 4.12682C2.58808 4.46438 2.39844 4.92222 2.39844 5.39961V10.1996C2.39844 10.677 2.58808 11.1348 2.92565 11.4724C3.26321 11.81 3.72105 11.9996 4.19844 11.9996H19.7984C20.2758 11.9996 20.7337 11.81 21.0712 11.4724C21.4088 11.1348 21.5984 10.677 21.5984 10.1996V5.39961C21.5984 4.92222 21.4088 4.46438 21.0712 4.12682C20.7337 3.78925 20.2758 3.59961 19.7984 3.59961H4.19844ZM4.19844 14.3996C3.72105 14.3996 3.26321 14.5893 2.92565 14.9268C2.58808 15.2644 2.39844 15.7222 2.39844 16.1996V18.5996C2.39844 19.077 2.58808 19.5348 2.92565 19.8724C3.26321 20.21 3.72105 20.3996 4.19844 20.3996H8.99844C9.47583 20.3996 9.93366 20.21 10.2712 19.8724C10.6088 19.5348 10.7984 19.077 10.7984 18.5996V16.1996C10.7984 15.7222 10.6088 15.2644 10.2712 14.9268C9.93366 14.5893 9.47583 14.3996 8.99844 14.3996H4.19844ZM14.9984 14.3996C14.521 14.3996 14.0632 14.5893 13.7256 14.9268C13.3881 15.2644 13.1984 15.7222 13.1984 16.1996V18.5996C13.1984 19.077 13.3881 19.5348 13.7256 19.8724C14.0632 20.21 14.521 20.3996 14.9984 20.3996H19.7984C20.2758 20.3996 20.7337 20.21 21.0712 19.8724C21.4088 19.5348 21.5984 19.077 21.5984 18.5996V16.1996C21.5984 15.7222 21.4088 15.2644 21.0712 14.9268C20.7337 14.5893 20.2758 14.3996 19.7984 14.3996H14.9984Z" fill="#3186F5"/>
</svg>
