<svg width="30" height="30" viewBox="0 0 30 30" fill="none" xmlns="http://www.w3.org/2000/svg">
<path d="M12.5 11.25C12.5 10.9185 12.6317 10.6005 12.8661 10.3661C13.1005 10.1317 13.4185 10 13.75 10C14.0815 10 14.3995 10.1317 14.6339 10.3661C14.8683 10.6005 15 10.9185 15 11.25V16.8375L16.5125 17L22.6875 19.7375C23.35 20.0375 23.75 20.7 23.75 21.425V26.875C23.7125 27.9 22.9 28.7125 21.875 28.75H13.75C13.275 28.75 12.825 28.5625 12.5 28.2125L6.375 22.9625L7.3 22C7.5375 21.7375 7.875 21.6 8.225 21.6H8.5L12.5 23.75V11.25ZM13.75 6.25C15.0761 6.25 16.3479 6.77678 17.2855 7.71447C18.2232 8.65215 18.75 9.92392 18.75 11.25C18.75 13.125 17.75 14.7125 16.25 15.575V14.05C17.0125 13.3625 17.5 12.3625 17.5 11.25C17.5 10.2554 17.1049 9.30161 16.4017 8.59835C15.6984 7.89509 14.7446 7.5 13.75 7.5C12.7554 7.5 11.8016 7.89509 11.0983 8.59835C10.3951 9.30161 10 10.2554 10 11.25C10 12.3625 10.4875 13.3625 11.25 14.05V15.575C9.75 14.7125 8.75 13.125 8.75 11.25C8.75 9.92392 9.27678 8.65215 10.2145 7.71447C11.1521 6.77678 12.4239 6.25 13.75 6.25ZM13.75 3.75C15.7391 3.75 17.6468 4.54018 19.0533 5.9467C20.4598 7.35322 21.25 9.26088 21.25 11.25C21.25 13.375 20.3625 15.2875 18.95 16.6625L17.7 16.1C19.1 14.95 20 13.2 20 11.25C20 9.5924 19.3415 8.00269 18.1694 6.83058C16.9973 5.65848 15.4076 5 13.75 5C12.0924 5 10.5027 5.65848 9.33058 6.83058C8.15848 8.00269 7.5 9.5924 7.5 11.25C7.5 13.8125 9.0375 16.0125 11.25 16.975V18.325C8.3375 17.2875 6.25 14.5125 6.25 11.25C6.25 9.26088 7.04018 7.35322 8.4467 5.9467C9.85322 4.54018 11.7609 3.75 13.75 3.75Z" fill="#F5F5F5"/>
</svg>
