<svg width="78" height="78" viewBox="0 0 78 78" fill="none" xmlns="http://www.w3.org/2000/svg">
<circle cx="39" cy="39" r="39" fill="#CF4242"/>
<path d="M26.9706 26.9708C27.1303 26.8107 27.32 26.6837 27.5288 26.5971C27.7376 26.5104 27.9614 26.4658 28.1875 26.4658C28.4136 26.4658 28.6374 26.5104 28.8463 26.5971C29.0551 26.6837 29.2447 26.8107 29.4044 26.9708L38.5 36.0698L47.5956 26.9708C47.7554 26.811 47.9452 26.6842 48.154 26.5977C48.3627 26.5112 48.5865 26.4667 48.8125 26.4667C49.0385 26.4667 49.2623 26.5112 49.4711 26.5977C49.6799 26.6842 49.8696 26.811 50.0294 26.9708C50.1892 27.1306 50.316 27.3203 50.4024 27.5291C50.4889 27.7379 50.5334 27.9616 50.5334 28.1876C50.5334 28.4136 50.4889 28.6374 50.4024 28.8462C50.316 29.055 50.1892 29.2447 50.0294 29.4045L40.9303 38.5001L50.0294 47.5958C50.1892 47.7556 50.316 47.9453 50.4024 48.1541C50.4889 48.3629 50.5334 48.5866 50.5334 48.8126C50.5334 49.0386 50.4889 49.2624 50.4024 49.4712C50.316 49.68 50.1892 49.8697 50.0294 50.0295C49.8696 50.1893 49.6799 50.3161 49.4711 50.4026C49.2623 50.489 49.0385 50.5336 48.8125 50.5336C48.5865 50.5336 48.3627 50.489 48.154 50.4026C47.9452 50.3161 47.7554 50.1893 47.5956 50.0295L38.5 40.9305L29.4044 50.0295C29.2446 50.1893 29.0549 50.3161 28.8461 50.4026C28.6373 50.489 28.4135 50.5336 28.1875 50.5336C27.9615 50.5336 27.7377 50.489 27.529 50.4026C27.3202 50.3161 27.1304 50.1893 26.9706 50.0295C26.8108 49.8697 26.6841 49.68 26.5976 49.4712C26.5111 49.2624 26.4666 49.0386 26.4666 48.8126C26.4666 48.5866 26.5111 48.3629 26.5976 48.1541C26.6841 47.9453 26.8108 47.7556 26.9706 47.5958L36.0697 38.5001L26.9706 29.4045C26.8106 29.2449 26.6836 29.0552 26.5969 28.8464C26.5103 28.6376 26.4657 28.4137 26.4657 28.1876C26.4657 27.9616 26.5103 27.7377 26.5969 27.5289C26.6836 27.3201 26.8106 27.1304 26.9706 26.9708Z" fill="white"/>
</svg>
