<svg width="78" height="78" viewBox="0 0 78 78" fill="none" xmlns="http://www.w3.org/2000/svg">
<circle cx="39" cy="39" r="39" fill="#E9EB76"/>
<path d="M31.9688 31.7087H22.5938C22.0412 31.7087 21.5113 31.4892 21.1206 31.0985C20.7299 30.7078 20.5104 30.1779 20.5104 29.6253V20.2503C20.5104 19.6978 20.7299 19.1679 21.1206 18.7772C21.5113 18.3865 22.0412 18.167 22.5938 18.167C23.1463 18.167 23.6762 18.3865 24.0669 18.7772C24.4576 19.1679 24.6771 19.6978 24.6771 20.2503V27.542H31.9688C32.5213 27.542 33.0512 27.7615 33.4419 28.1522C33.8326 28.5429 34.0521 29.0728 34.0521 29.6253C34.0521 30.1779 33.8326 30.7078 33.4419 31.0985C33.0512 31.4892 32.5213 31.7087 31.9688 31.7087Z" fill="white"/>
<path d="M57.75 41.0837C57.1975 41.0837 56.6676 40.8643 56.2769 40.4736C55.8862 40.0829 55.6667 39.5529 55.6667 39.0004C55.6683 35.3328 54.4593 31.7672 52.2273 28.8569C49.9953 25.9466 46.8652 23.8544 43.3226 22.9048C39.78 21.9553 36.0231 22.2016 32.6348 23.6055C29.2465 25.0094 26.4163 27.4924 24.5833 30.6692C24.3065 31.1474 23.8511 31.496 23.3172 31.6385C22.7833 31.7809 22.2147 31.7054 21.7365 31.4285C21.2582 31.1517 20.9096 30.6963 20.7672 30.1624C20.6248 29.6285 20.7003 29.0599 20.9771 28.5817C23.2693 24.6113 26.8077 21.5084 31.0434 19.7543C35.279 18.0003 39.9752 17.6931 44.4033 18.8804C48.8314 20.0677 52.7439 22.6832 55.5338 26.3211C58.3237 29.959 59.835 34.4159 59.8333 39.0004C59.8333 39.5529 59.6138 40.0829 59.2231 40.4736C58.8324 40.8643 58.3025 41.0837 57.75 41.0837ZM55.4063 59.8337C54.8537 59.8337 54.3238 59.6143 53.9331 59.2236C53.5424 58.8329 53.3229 58.3029 53.3229 57.7504V50.4587H46.0313C45.4787 50.4587 44.9488 50.2393 44.5581 49.8486C44.1674 49.4579 43.9479 48.9279 43.9479 48.3754C43.9479 47.8229 44.1674 47.293 44.5581 46.9023C44.9488 46.5116 45.4787 46.2921 46.0313 46.2921H55.4063C55.9588 46.2921 56.4887 46.5116 56.8794 46.9023C57.2701 47.293 57.4896 47.8229 57.4896 48.3754V57.7504C57.4896 58.3029 57.2701 58.8329 56.8794 59.2236C56.4887 59.6143 55.9588 59.8337 55.4063 59.8337Z" fill="white"/>
<path d="M39 59.8337C33.4767 59.827 28.1815 57.63 24.2759 53.7244C20.3703 49.8188 18.1733 44.5236 18.1667 39.0003C18.1667 38.4478 18.3862 37.9179 18.7769 37.5272C19.1676 37.1365 19.6975 36.917 20.25 36.917C20.8025 36.917 21.3324 37.1365 21.7231 37.5272C22.1138 37.9179 22.3333 38.4478 22.3333 39.0003C22.3318 42.668 23.5408 46.2336 25.7727 49.1439C28.0047 52.0541 31.1348 54.1464 34.6774 55.0959C38.22 56.0454 41.9769 55.7991 45.3653 54.3952C48.7536 52.9913 51.5838 50.5084 53.4167 47.3316C53.5537 47.0948 53.7361 46.8873 53.9534 46.721C54.1706 46.5547 54.4185 46.4328 54.6828 46.3623C54.9472 46.2918 55.2228 46.274 55.4941 46.31C55.7653 46.346 56.0268 46.4351 56.2635 46.5722C56.5003 46.7093 56.7078 46.8916 56.8741 47.1089C57.0404 47.3261 57.1623 47.574 57.2328 47.8384C57.3034 48.1027 57.3211 48.3784 57.2851 48.6496C57.2491 48.9208 57.16 49.1823 57.0229 49.4191C55.1906 52.5784 52.5625 55.2024 49.4003 57.0297C46.238 58.857 42.6522 59.8238 39 59.8337Z" fill="white"/>
</svg>
