<svg width="30" height="30" viewBox="0 0 30 30" fill="none" xmlns="http://www.w3.org/2000/svg">
<path d="M6.25 27.5C5.5625 27.5 4.97375 27.2554 4.48375 26.7663C3.99458 26.2763 3.75 25.6875 3.75 25V7.5H6.25V25H20V27.5H6.25ZM11.25 22.5C10.5625 22.5 9.97417 22.2554 9.485 21.7663C8.995 21.2763 8.75 20.6875 8.75 20V5C8.75 4.3125 8.995 3.72375 9.485 3.23375C9.97417 2.74458 10.5625 2.5 11.25 2.5H22.5C23.1875 2.5 23.7763 2.74458 24.2663 3.23375C24.7554 3.72375 25 4.3125 25 5V20C25 20.6875 24.7554 21.2763 24.2663 21.7663C23.7763 22.2554 23.1875 22.5 22.5 22.5H11.25ZM11.25 20H22.5V5H11.25V20ZM11.25 20V5V20Z" fill="#3186F5"/>
</svg>
