<svg width="30" height="30" viewBox="0 0 30 30" fill="none" xmlns="http://www.w3.org/2000/svg">
<path d="M8.125 13.75L15 2.5L21.875 13.75H8.125ZM21.875 27.5C20.3125 27.5 18.9842 26.9533 17.89 25.86C16.7967 24.7658 16.25 23.4375 16.25 21.875C16.25 20.3125 16.7967 18.9842 17.89 17.89C18.9842 16.7967 20.3125 16.25 21.875 16.25C23.4375 16.25 24.7658 16.7967 25.86 17.89C26.9533 18.9842 27.5 20.3125 27.5 21.875C27.5 23.4375 26.9533 24.7658 25.86 25.86C24.7658 26.9533 23.4375 27.5 21.875 27.5ZM3.75 26.875V16.875H13.75V26.875H3.75ZM21.875 25C22.75 25 23.4896 24.6979 24.0938 24.0938C24.6979 23.4896 25 22.75 25 21.875C25 21 24.6979 20.2604 24.0938 19.6562C23.4896 19.0521 22.75 18.75 21.875 18.75C21 18.75 20.2604 19.0521 19.6562 19.6562C19.0521 20.2604 18.75 21 18.75 21.875C18.75 22.75 19.0521 23.4896 19.6562 24.0938C20.2604 24.6979 21 25 21.875 25ZM6.25 24.375H11.25V19.375H6.25V24.375ZM12.5625 11.25H17.4375L15 7.3125L12.5625 11.25Z" fill="#2B2B2B"/>
</svg>
