<svg width="197" height="301" viewBox="0 0 197 301" fill="none" xmlns="http://www.w3.org/2000/svg">
<path d="M44.82 264.68L11.34 233.36L13.68 234.56L13.86 263H5.88V217.46H6.18L39.06 248.66L37.32 248L37.14 219.08H45.06V264.68H44.82ZM63.818 263.66C61.418 263.66 59.238 263.18 57.278 262.22C55.318 261.22 53.758 259.72 52.598 257.72C51.478 255.72 50.918 253.18 50.918 250.1C50.918 247.18 51.498 244.68 52.658 242.6C53.858 240.48 55.438 238.84 57.398 237.68C59.358 236.52 61.458 235.94 63.698 235.94C66.218 235.94 68.178 236.4 69.578 237.32C71.018 238.2 72.158 239.22 72.998 240.38L72.638 241.4L73.358 237.14H80.438V263H72.818V257.06L73.478 258.8C73.358 258.88 73.078 259.18 72.638 259.7C72.198 260.22 71.578 260.8 70.778 261.44C69.978 262.04 68.998 262.56 67.838 263C66.678 263.44 65.338 263.66 63.818 263.66ZM65.978 257.48C67.658 257.48 69.078 257.08 70.238 256.28C71.398 255.48 72.258 254.34 72.818 252.86V246.86C72.338 245.46 71.458 244.32 70.178 243.44C68.898 242.56 67.418 242.12 65.738 242.12C64.458 242.12 63.278 242.46 62.198 243.14C61.118 243.78 60.258 244.68 59.618 245.84C58.978 246.96 58.658 248.26 58.658 249.74C58.658 251.18 58.978 252.5 59.618 253.7C60.298 254.86 61.198 255.78 62.318 256.46C63.438 257.14 64.658 257.48 65.978 257.48ZM93.7847 237.14L94.5047 244.34L94.3247 243.32C95.0447 241.76 96.0447 240.44 97.3247 239.36C98.6447 238.28 99.9447 237.44 101.225 236.84C102.545 236.24 103.585 235.94 104.345 235.94L103.985 243.56C102.065 243.36 100.385 243.7 98.9447 244.58C97.5447 245.42 96.4647 246.56 95.7047 248C94.9447 249.4 94.5647 250.88 94.5647 252.44V263H86.9447V237.14H93.7847ZM118.608 263.66C116.208 263.66 114.028 263.18 112.068 262.22C110.108 261.22 108.548 259.72 107.388 257.72C106.268 255.72 105.708 253.18 105.708 250.1C105.708 247.18 106.288 244.68 107.448 242.6C108.648 240.48 110.228 238.84 112.188 237.68C114.148 236.52 116.248 235.94 118.488 235.94C121.008 235.94 122.968 236.4 124.368 237.32C125.808 238.2 126.948 239.22 127.788 240.38L127.428 241.4L128.148 237.14H135.228V263H127.608V257.06L128.268 258.8C128.148 258.88 127.868 259.18 127.428 259.7C126.988 260.22 126.368 260.8 125.568 261.44C124.768 262.04 123.788 262.56 122.628 263C121.468 263.44 120.128 263.66 118.608 263.66ZM120.768 257.48C122.448 257.48 123.868 257.08 125.028 256.28C126.188 255.48 127.048 254.34 127.608 252.86V246.86C127.128 245.46 126.248 244.32 124.968 243.44C123.688 242.56 122.208 242.12 120.528 242.12C119.248 242.12 118.068 242.46 116.988 243.14C115.908 243.78 115.048 244.68 114.408 245.84C113.768 246.96 113.448 248.26 113.448 249.74C113.448 251.18 113.768 252.5 114.408 253.7C115.088 254.86 115.988 255.78 117.108 256.46C118.228 257.14 119.448 257.48 120.768 257.48ZM173.595 255.26H187.635V263H163.215L173.595 255.26ZM140.475 241.04C140.475 238.04 141.035 235.18 142.155 232.46C143.315 229.74 144.915 227.34 146.955 225.26C149.035 223.18 151.415 221.56 154.095 220.4C156.815 219.2 159.715 218.6 162.795 218.6C165.875 218.6 168.775 219.2 171.495 220.4C174.215 221.56 176.615 223.18 178.695 225.26C180.775 227.34 182.395 229.74 183.555 232.46C184.755 235.18 185.355 238.06 185.355 241.1C185.355 244.18 184.755 247.08 183.555 249.8C182.395 252.48 180.775 254.86 178.695 256.94C176.615 258.98 174.215 260.58 171.495 261.74C168.775 262.9 165.875 263.48 162.795 263.48C159.755 263.48 156.875 262.9 154.155 261.74C151.435 260.58 149.035 258.98 146.955 256.94C144.915 254.9 143.315 252.54 142.155 249.86C141.035 247.14 140.475 244.2 140.475 241.04ZM148.635 241.1C148.635 243.78 149.275 246.24 150.555 248.48C151.835 250.72 153.555 252.5 155.715 253.82C157.915 255.14 160.375 255.8 163.095 255.8C165.735 255.8 168.115 255.14 170.235 253.82C172.395 252.5 174.095 250.72 175.335 248.48C176.575 246.24 177.195 243.78 177.195 241.1C177.195 239.06 176.815 237.16 176.055 235.4C175.335 233.6 174.315 232.04 172.995 230.72C171.715 229.36 170.215 228.3 168.495 227.54C166.775 226.78 164.915 226.4 162.915 226.4C160.195 226.4 157.755 227.08 155.595 228.44C153.435 229.76 151.735 231.52 150.495 233.72C149.255 235.92 148.635 238.38 148.635 241.1Z" fill="white"/>
<circle cx="98.4773" cy="98.4773" r="98.4773" fill="white"/>
<path d="M56.7627 51.2269V48.9983C56.7627 41.4364 64.8321 36.6106 71.4941 40.1885L72.447 40.7002C75.6914 42.4427 77.7156 45.8274 77.7156 49.5101V68.7518L126.326 40.8884C133.004 37.0606 141.322 41.8965 141.299 49.5936L140.992 154.237C140.975 159.748 136.503 164.208 130.992 164.208H130.009C124.487 164.208 120.009 159.73 120.009 154.207V83.0917C120.009 75.453 111.791 70.6348 105.126 74.3653L77.7156 89.7055V154.207C77.7156 159.73 73.2384 164.208 67.7156 164.208H66.7627C61.2398 164.208 56.7627 159.73 56.7627 154.208V95.06C56.7627 87.4351 64.9539 82.6154 71.6193 86.3185L77.7156 89.7055V68.7518L61.9061 59.9684C58.7316 58.2047 56.7627 54.8585 56.7627 51.2269Z" fill="#3186F5"/>
<ellipse cx="67.2391" cy="56.7228" rx="5.82025" ry="5.82047" fill="white"/>
<ellipse cx="67.2391" cy="77.6764" rx="5.82025" ry="5.82047" fill="#3186F5"/>
<circle cx="68.4581" cy="59.672" r="5.4913" fill="white"/>
<path d="M99.1348 175.152L193.963 174.994C195.62 174.992 196.965 176.332 196.968 177.989L196.995 194.161C196.997 195.817 195.656 197.163 194 197.166L99.1716 197.323L99.1348 175.152Z" fill="white"/>
</svg>
