<svg width="280" height="416" viewBox="0 0 280 416" fill="none" xmlns="http://www.w3.org/2000/svg">
<path d="M65.7585 382.522L16.6377 336.571L20.0709 338.331L20.3349 380.057H8.62695V313.243H9.0671L57.3076 359.018L54.7547 358.05L54.4906 315.619H66.1106V382.522H65.7585ZM93.6317 381.026C90.1105 381.026 86.912 380.322 84.0364 378.913C81.1607 377.446 78.872 375.245 77.17 372.311C75.5268 369.377 74.7052 365.65 74.7052 361.131C74.7052 356.847 75.5562 353.179 77.2581 350.127C79.0187 347.017 81.3368 344.611 84.2124 342.909C87.0881 341.207 90.1691 340.356 93.4556 340.356C97.1529 340.356 100.029 341.031 102.083 342.381C104.195 343.672 105.868 345.168 107.1 346.87L106.572 348.367L107.628 342.117H118.016V380.057H106.836V371.343L107.805 373.895C107.628 374.013 107.218 374.453 106.572 375.216C105.927 375.979 105.017 376.83 103.843 377.769C102.669 378.649 101.232 379.412 99.5297 380.057C97.8278 380.703 95.8618 381.026 93.6317 381.026ZM96.8007 371.959C99.2656 371.959 101.349 371.372 103.051 370.198C104.753 369.024 106.015 367.352 106.836 365.18V356.377C106.132 354.323 104.841 352.651 102.963 351.36C101.085 350.069 98.9135 349.423 96.4486 349.423C94.5707 349.423 92.8394 349.922 91.2549 350.92C89.6703 351.859 88.4085 353.179 87.4696 354.881C86.5306 356.524 86.0611 358.431 86.0611 360.603C86.0611 362.716 86.5306 364.652 87.4696 366.413C88.4672 368.115 89.7877 369.465 91.4309 370.462C93.0741 371.46 94.8641 371.959 96.8007 371.959ZM137.598 342.117L138.654 352.68L138.39 351.184C139.446 348.895 140.914 346.958 142.792 345.374C144.728 343.789 146.636 342.557 148.514 341.676C150.45 340.796 151.976 340.356 153.091 340.356L152.563 351.536C149.746 351.242 147.281 351.741 145.168 353.032C143.114 354.265 141.53 355.937 140.415 358.05C139.3 360.104 138.742 362.275 138.742 364.564V380.057H127.562V342.117H137.598ZM174.018 381.026C170.496 381.026 167.298 380.322 164.422 378.913C161.547 377.446 159.258 375.245 157.556 372.311C155.913 369.377 155.091 365.65 155.091 361.131C155.091 356.847 155.942 353.179 157.644 350.127C159.405 347.017 161.723 344.611 164.598 342.909C167.474 341.207 170.555 340.356 173.841 340.356C177.539 340.356 180.414 341.031 182.468 342.381C184.581 343.672 186.254 345.168 187.486 346.87L186.958 348.367L188.014 342.117H198.402V380.057H187.222V371.343L188.19 373.895C188.014 374.013 187.604 374.453 186.958 375.216C186.312 375.979 185.403 376.83 184.229 377.769C183.055 378.649 181.617 379.412 179.916 380.057C178.214 380.703 176.248 381.026 174.018 381.026ZM177.187 371.959C179.651 371.959 181.735 371.372 183.437 370.198C185.139 369.024 186.4 367.352 187.222 365.18V356.377C186.518 354.323 185.227 352.651 183.349 351.36C181.471 350.069 179.299 349.423 176.835 349.423C174.957 349.423 173.225 349.922 171.641 350.92C170.056 351.859 168.794 353.179 167.855 354.881C166.916 356.524 166.447 358.431 166.447 360.603C166.447 362.716 166.916 364.652 167.855 366.413C168.853 368.115 170.174 369.465 171.817 370.462C173.46 371.46 175.25 371.959 177.187 371.959ZM254.692 368.702H275.291V380.057H239.463L254.692 368.702ZM206.1 347.838C206.1 343.437 206.921 339.241 208.565 335.25C210.266 331.259 212.614 327.738 215.607 324.687C218.659 321.635 222.151 319.258 226.083 317.556C230.073 315.796 234.328 314.915 238.847 314.915C243.366 314.915 247.621 315.796 251.611 317.556C255.602 319.258 259.123 321.635 262.175 324.687C265.227 327.738 267.603 331.259 269.305 335.25C271.066 339.241 271.946 343.466 271.946 347.927C271.946 352.445 271.066 356.7 269.305 360.691C267.603 364.623 265.227 368.115 262.175 371.166C259.123 374.159 255.602 376.507 251.611 378.209C247.621 379.911 243.366 380.762 238.847 380.762C234.387 380.762 230.161 379.911 226.171 378.209C222.18 376.507 218.659 374.159 215.607 371.166C212.614 368.173 210.266 364.711 208.565 360.779C206.921 356.788 206.1 352.475 206.1 347.838ZM218.072 347.927C218.072 351.859 219.011 355.468 220.889 358.754C222.767 362.041 225.29 364.652 228.459 366.589C231.687 368.526 235.296 369.494 239.287 369.494C243.16 369.494 246.652 368.526 249.763 366.589C252.932 364.652 255.426 362.041 257.245 358.754C259.064 355.468 259.974 351.859 259.974 347.927C259.974 344.934 259.417 342.146 258.302 339.564C257.245 336.923 255.749 334.634 253.812 332.697C251.934 330.702 249.733 329.147 247.21 328.032C244.686 326.917 241.957 326.359 239.023 326.359C235.032 326.359 231.452 327.357 228.283 329.352C225.114 331.289 222.62 333.871 220.801 337.099C218.981 340.327 218.072 343.936 218.072 347.927Z" fill="white"/>
<circle cx="139.968" cy="139.968" r="139.968" fill="white"/>
<path d="M83.2522 85.3335V52.0326L111.35 67.1221V100.943L196.683 52.0326L196.163 228.944H168.065V97.301L111.35 129.041V228.944H83.2522V113.431L111.35 129.041V100.943L83.2522 85.3335Z" fill="#3186F5"/>
<circle cx="97.301" cy="84.8132" r="7.80489" fill="white"/>
<circle cx="97.301" cy="112.911" r="7.80489" fill="#3186F5"/>
<rect x="140.903" y="248.947" width="139.045" height="31.5125" transform="rotate(-0.0951775 140.903 248.947)" fill="white"/>
</svg>
