<svg width="26" height="26" viewBox="0 0 26 26" fill="none" xmlns="http://www.w3.org/2000/svg">
<path d="M12.8875 15.4996H22.6912C23.4372 15.4996 24.1525 15.7959 24.68 16.3234C25.2074 16.8508 25.5037 17.5662 25.5037 18.3121V19.4434C25.5037 20.1188 25.3577 20.7863 25.0758 21.4001C24.7938 22.0139 24.3825 22.5596 23.87 22.9996C21.9125 24.6809 19.1125 25.5021 15.5 25.5021H15.2762C15.4645 25.1225 15.5387 24.6964 15.4896 24.2755C15.4406 23.8546 15.2705 23.457 15 23.1309L14.8612 22.9796L12.0737 20.1996C12.8987 18.7808 13.187 17.113 12.8862 15.4996H12.8875ZM6.125 11.1246C7.19357 11.1247 8.24003 11.4291 9.14189 12.0022C10.0437 12.5754 10.7637 13.3936 11.2174 14.361C11.6712 15.3285 11.84 16.4051 11.7041 17.465C11.5682 18.5249 11.1332 19.5242 10.45 20.3459L13.9787 23.8634C14.1454 24.0307 14.2427 24.2547 14.2513 24.4906C14.26 24.7266 14.1793 24.9571 14.0253 25.1361C13.8714 25.3151 13.6556 25.4295 13.421 25.4563C13.1864 25.4832 12.9504 25.4205 12.76 25.2809L12.6537 25.1909L9.025 21.5709C8.28199 22.0174 7.44582 22.2862 6.58178 22.3562C5.71774 22.4263 4.8492 22.2956 4.04398 21.9746C3.23876 21.6535 2.51864 21.1506 1.93985 20.5053C1.36105 19.8599 0.93925 19.0896 0.707365 18.2543C0.47548 17.419 0.439789 16.5414 0.60308 15.69C0.76637 14.8387 1.12422 14.0366 1.6487 13.3464C2.17317 12.6562 2.85008 12.0965 3.62657 11.7111C4.40306 11.3257 5.25812 11.125 6.125 11.1246ZM6.125 12.9996C5.13044 12.9996 4.17661 13.3947 3.47335 14.098C2.77009 14.8012 2.375 15.755 2.375 16.7496C2.375 17.7442 2.77009 18.698 3.47335 19.4013C4.17661 20.1045 5.13044 20.4996 6.125 20.4996C7.11956 20.4996 8.07339 20.1045 8.77665 19.4013C9.47991 18.698 9.875 17.7442 9.875 16.7496C9.875 15.755 9.47991 14.8012 8.77665 14.098C8.07339 13.3947 7.11956 12.9996 6.125 12.9996ZM15.5 0.505859C16.3208 0.505859 17.1335 0.66752 17.8918 0.981612C18.6501 1.2957 19.339 1.75608 19.9194 2.33644C20.4998 2.91681 20.9602 3.6058 21.2742 4.36409C21.5883 5.12237 21.75 5.9351 21.75 6.75586C21.75 7.57662 21.5883 8.38934 21.2742 9.14763C20.9602 9.90591 20.4998 10.5949 19.9194 11.1753C19.339 11.7556 18.6501 12.216 17.8918 12.5301C17.1335 12.8442 16.3208 13.0059 15.5 13.0059C13.8424 13.0059 12.2527 12.3474 11.0806 11.1753C9.90848 10.0032 9.25 8.41346 9.25 6.75586C9.25 5.09826 9.90848 3.50854 11.0806 2.33644C12.2527 1.16434 13.8424 0.505859 15.5 0.505859Z" fill="#F5F5F5"/>
</svg>
