<svg width="33" height="26" viewBox="0 0 33 26" fill="none" xmlns="http://www.w3.org/2000/svg">
<g clip-path="url(#clip0_1534_596)">
<path d="M10.5625 17.875C10.4411 17.875 10.3197 17.8928 10.2039 17.9304C9.54582 18.1441 8.85367 18.2812 8.12496 18.2812C7.39625 18.2812 6.7041 18.1441 6.04547 17.9304C5.92969 17.8928 5.80883 17.875 5.68746 17.875C2.53598 17.875 -0.0167978 20.4384 -4.00343e-05 23.594C0.00706934 24.9275 1.10344 26 2.43746 26H13.8125C15.1465 26 16.2429 24.9275 16.25 23.594C16.2667 20.4384 13.7139 17.875 10.5625 17.875ZM8.12496 16.25C10.8174 16.25 13 14.0674 13 11.375C13 8.68258 10.8174 6.5 8.12496 6.5C5.43254 6.5 3.24996 8.68258 3.24996 11.375C3.24996 14.0674 5.43254 16.25 8.12496 16.25ZM30.0625 0H10.5625C9.21828 0 8.12496 1.12988 8.12496 2.51824V4.875C9.31426 4.875 10.4152 5.2193 11.375 5.77891V3.25H29.25V17.875H26V14.625H19.5V17.875H15.6284C16.5983 18.7225 17.3103 19.8418 17.6439 21.125H30.0625C31.4066 21.125 32.5 19.9951 32.5 18.6068V2.51824C32.5 1.12988 31.4066 0 30.0625 0Z" fill="#3186F5"/>
</g>
<defs>
<clipPath id="clip0_1534_596">
<rect width="32.5" height="26" fill="white"/>
</clipPath>
</defs>
</svg>
