<svg width="50" height="50" viewBox="0 0 50 50" fill="none" xmlns="http://www.w3.org/2000/svg">
<path fill-rule="evenodd" clip-rule="evenodd" d="M24.9974 43.7494C35.3526 43.7494 43.7474 35.3546 43.7474 24.9994C43.7474 14.6441 35.3526 6.24935 24.9974 6.24935C14.6422 6.24935 6.2474 14.6441 6.2474 24.9994C6.2474 35.3546 14.6422 43.7494 24.9974 43.7494ZM24.9974 45.8327C36.5036 45.8327 45.8307 36.5056 45.8307 24.9994C45.8307 13.4931 36.5036 4.16602 24.9974 4.16602C13.4911 4.16602 4.16406 13.4931 4.16406 24.9994C4.16406 36.5056 13.4911 45.8327 24.9974 45.8327Z" fill="#3186F5"/>
<path d="M12.5 37.1143C12.5 36.0383 13.3042 35.1289 14.375 35.0102C22.4115 34.1206 27.625 34.2008 35.6437 35.03C36.0442 35.072 36.4237 35.2298 36.7359 35.484C37.0482 35.7382 37.2797 36.0778 37.4021 36.4613C37.5245 36.8449 37.5325 37.2558 37.4252 37.6439C37.3179 38.032 37.1 38.3804 36.7979 38.6466C27.3344 46.8956 21.926 46.7821 13.1667 38.655C12.7396 38.2591 12.5 37.6966 12.5 37.1154V37.1143Z" fill="#3186F5"/>
<path fill-rule="evenodd" clip-rule="evenodd" d="M35.5313 36.0646C27.576 35.2417 22.4375 35.1646 14.4833 36.0448C14.2215 36.0753 13.9801 36.2013 13.8054 36.3987C13.6307 36.5961 13.5349 36.851 13.5365 37.1146C13.5365 37.4125 13.6604 37.6948 13.8698 37.8906C18.2115 41.9177 21.501 43.7375 24.7167 43.749C27.9438 43.7604 31.4104 41.9552 36.1083 37.8615C36.2576 37.7286 36.365 37.5553 36.4176 37.3625C36.4702 37.1698 36.4656 36.9659 36.4045 36.7757C36.3434 36.5854 36.2283 36.4171 36.0733 36.291C35.9183 36.165 35.73 36.0867 35.5313 36.0656V36.0646ZM14.2552 33.974C22.376 33.075 27.6656 33.1563 35.7469 33.9927C36.3493 34.0556 36.9203 34.2928 37.39 34.6752C37.8597 35.0576 38.2077 35.5686 38.3914 36.1457C38.5751 36.7229 38.5866 37.341 38.4244 37.9246C38.2622 38.5081 37.9333 39.0317 37.4781 39.4313C32.7125 43.5854 28.7438 45.8479 24.7104 45.8323C20.6656 45.8177 16.8719 43.5167 12.4542 39.4177C12.1379 39.1231 11.8857 38.7664 11.7135 38.37C11.5412 37.9735 11.4526 37.5458 11.4531 37.1136C11.4516 36.3369 11.7367 35.587 12.2537 35.0075C12.7708 34.428 13.4834 34.0596 14.2552 33.9729V33.974Z" fill="#3186F5"/>
<path d="M33.3307 20.8333C33.3307 23.0435 32.4528 25.1631 30.89 26.7259C29.3272 28.2887 27.2075 29.1667 24.9974 29.1667C22.7873 29.1667 20.6676 28.2887 19.1048 26.7259C17.542 25.1631 16.6641 23.0435 16.6641 20.8333C16.6641 18.6232 17.542 16.5036 19.1048 14.9408C20.6676 13.378 22.7873 12.5 24.9974 12.5C27.2075 12.5 29.3272 13.378 30.89 14.9408C32.4528 16.5036 33.3307 18.6232 33.3307 20.8333Z" fill="#3186F5"/>
<path fill-rule="evenodd" clip-rule="evenodd" d="M24.9974 27.0833C26.655 27.0833 28.2447 26.4249 29.4168 25.2528C30.5889 24.0807 31.2474 22.4909 31.2474 20.8333C31.2474 19.1757 30.5889 17.586 29.4168 16.4139C28.2447 15.2418 26.655 14.5833 24.9974 14.5833C23.3398 14.5833 21.7501 15.2418 20.578 16.4139C19.4059 17.586 18.7474 19.1757 18.7474 20.8333C18.7474 22.4909 19.4059 24.0807 20.578 25.2528C21.7501 26.4249 23.3398 27.0833 24.9974 27.0833ZM24.9974 29.1667C27.2075 29.1667 29.3272 28.2887 30.89 26.7259C32.4528 25.1631 33.3307 23.0435 33.3307 20.8333C33.3307 18.6232 32.4528 16.5036 30.89 14.9408C29.3272 13.378 27.2075 12.5 24.9974 12.5C22.7873 12.5 20.6676 13.378 19.1048 14.9408C17.542 16.5036 16.6641 18.6232 16.6641 20.8333C16.6641 23.0435 17.542 25.1631 19.1048 26.7259C20.6676 28.2887 22.7873 29.1667 24.9974 29.1667Z" fill="#3186F5"/>
</svg>
