<svg width="38" height="30" viewBox="0 0 38 30" fill="none" xmlns="http://www.w3.org/2000/svg">
<path d="M12.1876 20.625C12.0476 20.625 11.9075 20.6455 11.7739 20.6889C11.0145 20.9355 10.2159 21.0938 9.37509 21.0938C8.53427 21.0938 7.73564 20.9355 6.97568 20.6889C6.84209 20.6455 6.70263 20.625 6.56259 20.625C2.92627 20.625 -0.0192413 23.5828 9.4657e-05 27.2238C0.00829778 28.7625 1.27334 30 2.81259 30H15.9376C17.4769 30 18.7419 28.7625 18.7501 27.2238C18.7694 23.5828 15.8239 20.625 12.1876 20.625ZM9.37509 18.75C12.4817 18.75 15.0001 16.2316 15.0001 13.125C15.0001 10.0184 12.4817 7.5 9.37509 7.5C6.26845 7.5 3.75009 10.0184 3.75009 13.125C3.75009 16.2316 6.26845 18.75 9.37509 18.75ZM34.6876 0H12.1876C10.6366 0 9.37509 1.30371 9.37509 2.90566V5.625C10.7474 5.625 12.0177 6.02227 13.1251 6.66797V3.75H33.7501V20.625H30.0001V16.875H22.5001V20.625H18.0329C19.152 21.6029 19.9735 22.8943 20.3585 24.375H34.6876C36.2386 24.375 37.5001 23.0713 37.5001 21.4693V2.90566C37.5001 1.30371 36.2386 0 34.6876 0Z" fill="#3186F5"/>
</svg>
