<svg width="25" height="25" viewBox="0 0 25 25" fill="none" xmlns="http://www.w3.org/2000/svg">
<path d="M22.3125 13V22.375C22.3125 22.8723 22.115 23.3492 21.7633 23.7008C21.4117 24.0525 20.9348 24.25 20.4375 24.25H2.625C2.12772 24.25 1.65081 24.0525 1.29917 23.7008C0.947544 23.3492 0.75 22.8723 0.75 22.375V4.5625C0.75 4.06522 0.947544 3.58831 1.29917 3.23667C1.65081 2.88504 2.12772 2.6875 2.625 2.6875H12C12.2486 2.6875 12.4871 2.78627 12.6629 2.96209C12.8387 3.1379 12.9375 3.37636 12.9375 3.625C12.9375 3.87364 12.8387 4.1121 12.6629 4.28791C12.4871 4.46373 12.2486 4.5625 12 4.5625H2.625V22.375H20.4375V13C20.4375 12.7514 20.5363 12.5129 20.7121 12.3371C20.8879 12.1613 21.1264 12.0625 21.375 12.0625C21.6236 12.0625 21.8621 12.1613 22.0379 12.3371C22.2137 12.5129 22.3125 12.7514 22.3125 13ZM24.1875 5.03125C24.1875 5.86564 23.9401 6.68129 23.4765 7.37506C23.013 8.06883 22.3541 8.60956 21.5832 8.92887C20.8123 9.24817 19.9641 9.33172 19.1457 9.16894C18.3274 9.00616 17.5756 8.60436 16.9856 8.01436C16.3956 7.42435 15.9938 6.67264 15.8311 5.85429C15.6683 5.03593 15.7518 4.18768 16.0711 3.4168C16.3904 2.64593 16.9312 1.98705 17.6249 1.52349C18.3187 1.05993 19.1344 0.8125 19.9688 0.8125C21.0876 0.8125 22.1607 1.25697 22.9519 2.04814C23.743 2.83931 24.1875 3.91237 24.1875 5.03125ZM22.3125 5.03125C22.3125 4.5677 22.175 4.11456 21.9175 3.72913C21.66 3.3437 21.2939 3.0433 20.8657 2.86591C20.4374 2.68851 19.9662 2.6421 19.5115 2.73253C19.0569 2.82297 18.6392 3.04619 18.3115 3.37397C17.9837 3.70175 17.7605 4.11936 17.67 4.57401C17.5796 5.02865 17.626 5.4999 17.8034 5.92816C17.9808 6.35643 18.2812 6.72247 18.6666 6.98001C19.0521 7.23754 19.5052 7.375 19.9688 7.375C20.5894 7.37192 21.1838 7.124 21.6226 6.68513C22.0615 6.24626 22.3094 5.6519 22.3125 5.03125Z" fill="#3186F5"/>
</svg>
