<svg width="26" height="25" viewBox="0 0 26 25" fill="none" xmlns="http://www.w3.org/2000/svg">
<path d="M25.3748 22.442L25.0915 22.192C24.2877 21.4758 23.5841 20.6545 22.9998 19.7503C22.3617 18.5024 21.9792 17.1397 21.8748 15.742V11.6253C21.8804 9.43 21.084 7.30822 19.6355 5.65864C18.1869 4.00905 16.1858 2.94521 14.0082 2.66699V1.59199C14.0082 1.29694 13.891 1.01397 13.6823 0.805336C13.4737 0.596702 13.1907 0.479492 12.8957 0.479492C12.6006 0.479492 12.3176 0.596702 12.109 0.805336C11.9004 1.01397 11.7832 1.29694 11.7832 1.59199V2.68366C9.62505 2.98193 7.64815 4.05221 6.21861 5.69625C4.78908 7.34029 4.00378 9.4467 4.00817 11.6253V15.742C3.9038 17.1397 3.52132 18.5024 2.88317 19.7503C2.30891 20.6523 1.61667 21.4734 0.824837 22.192L0.541504 22.442V24.792H25.3748V22.442Z" fill="#3186F5"/>
</svg>
