<svg width="33" height="34" viewBox="0 0 33 34" fill="none" xmlns="http://www.w3.org/2000/svg">
<path d="M21.5748 2.82783C20.1372 2.8275 18.7195 3.16393 17.4353 3.81015C16.1511 4.45638 15.0362 5.39443 14.1798 6.54914C13.3234 7.70385 12.7494 9.04311 12.5038 10.4596C12.2582 11.8761 12.3478 13.3304 12.7654 14.706L2.13928 25.3321V31.4697H8.27682L18.903 20.8436C20.1692 21.2279 21.5035 21.3348 22.8148 21.1569C24.1261 20.9789 25.3837 20.5204 26.5017 19.8125C27.6198 19.1046 28.5721 18.164 29.2938 17.0548C30.0155 15.9455 30.4895 14.6937 30.6837 13.3847C30.8778 12.0757 30.7875 10.7402 30.4188 9.46931C30.0501 8.19837 29.4118 7.02185 28.5473 6.01992C27.6828 5.018 26.6125 4.21422 25.4092 3.66336C24.206 3.11251 22.8982 2.82752 21.5748 2.82783ZM21.5748 19.1946C20.8706 19.1942 20.1702 19.0901 19.4963 18.8857L18.323 18.5297L17.4565 19.3961L14.2026 22.65L12.792 21.2405L11.3456 22.6869L12.7562 24.0975L11.1339 25.7198L9.72324 24.3092L8.27682 25.7556L9.68744 27.1663L7.42984 29.4238H4.18513V26.1791L14.2118 16.1524L15.0793 15.286L14.7233 14.1127C14.2861 12.6714 14.3145 11.1289 14.8045 9.7047C15.2944 8.28047 16.2211 7.04701 17.4525 6.17977C18.6839 5.31253 20.1575 4.85569 21.6635 4.87422C23.1696 4.89275 24.6314 5.38571 25.8411 6.28298C27.0509 7.18025 27.9469 8.43613 28.4017 9.87199C28.8564 11.3078 28.8469 12.8506 28.3744 14.2807C27.9018 15.7108 26.9903 16.9555 25.7696 17.8377C24.5488 18.7199 23.081 19.1947 21.5748 19.1946Z" fill="black"/>
<path d="M22.5978 13.0571C23.7277 13.0571 24.6436 12.1411 24.6436 11.0112C24.6436 9.88133 23.7277 8.96537 22.5978 8.96537C21.4679 8.96537 20.5519 9.88133 20.5519 11.0112C20.5519 12.1411 21.4679 13.0571 22.5978 13.0571Z" fill="black"/>
</svg>
