<svg width="16" height="16" viewBox="0 0 16 16" fill="none" xmlns="http://www.w3.org/2000/svg">
<path d="M7.34948 14V12.5667C6.76059 12.4333 6.25237 12.1778 5.82481 11.8C5.39681 11.4222 5.08281 10.8889 4.88281 10.2L6.11615 9.7C6.28281 10.2333 6.53015 10.6389 6.85815 10.9167C7.1857 11.1944 7.61615 11.3333 8.14948 11.3333C8.60504 11.3333 8.99126 11.2307 9.30815 11.0253C9.62459 10.8196 9.78281 10.5 9.78281 10.0667C9.78281 9.67778 9.66059 9.36933 9.41615 9.14133C9.1717 8.91378 8.60503 8.65556 7.71615 8.36667C6.76059 8.06667 6.10503 7.70844 5.74948 7.292C5.39392 6.87511 5.21615 6.36667 5.21615 5.76667C5.21615 5.04444 5.44948 4.48333 5.91615 4.08333C6.38281 3.68333 6.86059 3.45556 7.34948 3.4V2H8.68281V3.4C9.23837 3.48889 9.69681 3.69156 10.0581 4.008C10.419 4.32489 10.6828 4.71111 10.8495 5.16667L9.61615 5.7C9.48281 5.34444 9.29392 5.07778 9.04948 4.9C8.80503 4.72222 8.4717 4.63333 8.04948 4.63333C7.56059 4.63333 7.18837 4.74178 6.93281 4.95867C6.67726 5.17511 6.54948 5.44444 6.54948 5.76667C6.54948 6.13333 6.71615 6.42222 7.04948 6.63333C7.38281 6.84444 7.96059 7.06667 8.78281 7.3C9.54948 7.52222 10.1301 7.87489 10.5248 8.358C10.919 8.84156 11.1161 9.4 11.1161 10.0333C11.1161 10.8222 10.8828 11.4222 10.4161 11.8333C9.94948 12.2444 9.3717 12.5 8.68281 12.6V14H7.34948Z" fill="#F5F5F5"/>
</svg>
