<svg width="31" height="30" viewBox="0 0 31 30" fill="none" xmlns="http://www.w3.org/2000/svg">
<g filter="url(#filter0_dd_1363_571)">
<path d="M16.63 2C22.16 2 26.64 6.5 26.64 12C26.64 17.5 22.16 22 16.63 22C13.12 22 10.05 20.18 8.26 17.43L9.84 16.18C11.25 18.47 13.76 20 16.64 20C18.7617 20 20.7966 19.1571 22.2969 17.6569C23.7971 16.1566 24.64 14.1217 24.64 12C24.64 9.87827 23.7971 7.84344 22.2969 6.34315C20.7966 4.84285 18.7617 4 16.64 4C12.56 4 9.2 7.06 8.71 11H11.47L7.73 14.73L4 11H6.69C7.19 5.95 11.45 2 16.63 2ZM19.59 10.24C20.09 10.25 20.5 10.65 20.5 11.16V15.77C20.5 16.27 20.09 16.69 19.58 16.69H14.05C13.54 16.69 13.13 16.27 13.13 15.77V11.16C13.13 10.65 13.54 10.25 14.04 10.24V9.23C14.04 7.7 15.29 6.46 16.81 6.46C18.34 6.46 19.59 7.7 19.59 9.23V10.24ZM16.81 7.86C16.06 7.86 15.44 8.47 15.44 9.23V10.24H18.19V9.23C18.19 8.47 17.57 7.86 16.81 7.86Z" fill="#3186F5"/>
</g>
<defs>
<filter id="filter0_dd_1363_571" x="0" y="0" width="32" height="32" filterUnits="userSpaceOnUse" color-interpolation-filters="sRGB">
<feFlood flood-opacity="0" result="BackgroundImageFix"/>
<feColorMatrix in="SourceAlpha" type="matrix" values="0 0 0 0 0 0 0 0 0 0 0 0 0 0 0 0 0 0 127 0" result="hardAlpha"/>
<feOffset dy="4"/>
<feGaussianBlur stdDeviation="2"/>
<feComposite in2="hardAlpha" operator="out"/>
<feColorMatrix type="matrix" values="0 0 0 0 0 0 0 0 0 0 0 0 0 0 0 0 0 0 0.25 0"/>
<feBlend mode="normal" in2="BackgroundImageFix" result="effect1_dropShadow_1363_571"/>
<feColorMatrix in="SourceAlpha" type="matrix" values="0 0 0 0 0 0 0 0 0 0 0 0 0 0 0 0 0 0 127 0" result="hardAlpha"/>
<feOffset dy="4"/>
<feGaussianBlur stdDeviation="2"/>
<feComposite in2="hardAlpha" operator="out"/>
<feColorMatrix type="matrix" values="0 0 0 0 0 0 0 0 0 0 0 0 0 0 0 0 0 0 0.25 0"/>
<feBlend mode="normal" in2="effect1_dropShadow_1363_571" result="effect2_dropShadow_1363_571"/>
<feBlend mode="normal" in="SourceGraphic" in2="effect2_dropShadow_1363_571" result="shape"/>
</filter>
</defs>
</svg>
