<svg width="32" height="32" viewBox="0 0 32 32" fill="none" xmlns="http://www.w3.org/2000/svg">
<path d="M16 12.006C16.7005 12.006 17.3941 12.144 18.0413 12.412C18.6884 12.6801 19.2764 13.073 19.7717 13.5683C20.267 14.0636 20.6599 14.6516 20.928 15.2988C21.1961 15.9459 21.334 16.6395 21.334 17.34C21.334 18.0405 21.1961 18.7341 20.928 19.3812C20.6599 20.0284 20.267 20.6164 19.7717 21.1117C19.2764 21.607 18.6884 21.9999 18.0413 22.268C17.3941 22.536 16.7005 22.674 16 22.674C14.5854 22.674 13.2286 22.112 12.2283 21.1117C11.228 20.1114 10.666 18.7547 10.666 17.34C10.666 15.9253 11.228 14.5686 12.2283 13.5683C13.2286 12.568 14.5854 12.006 16 12.006ZM16 14.006C15.1158 14.006 14.2678 14.3573 13.6425 14.9825C13.0173 15.6078 12.666 16.4558 12.666 17.34C12.666 18.2242 13.0173 19.0722 13.6425 19.6975C14.2678 20.3227 15.1158 20.674 16 20.674C16.8843 20.674 17.7323 20.3227 18.3575 19.6975C18.9828 19.0722 19.334 18.2242 19.334 17.34C19.334 16.4558 18.9828 15.6078 18.3575 14.9825C17.7323 14.3573 16.8843 14.006 16 14.006ZM16 7.334C22.152 7.334 27.46 11.534 28.934 17.42C28.9693 17.5485 28.9785 17.6828 28.9611 17.8149C28.9437 17.9471 28.9001 18.0744 28.8328 18.1894C28.7655 18.3044 28.6759 18.4049 28.5692 18.4848C28.4626 18.5647 28.341 18.6225 28.2117 18.6547C28.0824 18.687 27.9479 18.6931 27.8163 18.6726C27.6846 18.6522 27.5583 18.6056 27.4448 18.5357C27.3314 18.4657 27.2331 18.3738 27.1557 18.2654C27.0782 18.1569 27.0233 18.034 26.994 17.904C26.3752 15.4565 24.9574 13.2856 22.9652 11.735C20.973 10.1844 18.5204 9.34297 15.9959 9.34389C13.4714 9.34481 11.0194 10.1881 9.0284 11.7401C7.03735 13.2921 5.6211 15.4641 5.00403 17.912C4.93806 18.1676 4.77369 18.3867 4.54678 18.5216C4.31987 18.6565 4.04883 18.6962 3.79276 18.6321C3.5367 18.5679 3.31638 18.4052 3.17987 18.1792C3.04335 17.9533 3.00172 17.6825 3.06403 17.426C3.78742 14.5429 5.45314 11.9841 7.79676 10.1557C10.1404 8.32734 13.0276 7.33422 16 7.334Z" fill="#B3B3B3"/>
</svg>
