<svg width="20" height="20" viewBox="0 0 20 20" fill="none" xmlns="http://www.w3.org/2000/svg">
<path d="M10.0011 7.50398C10.4389 7.50398 10.8724 7.59021 11.2769 7.75775C11.6813 7.92529 12.0489 8.17085 12.3584 8.48042C12.668 8.78998 12.9136 9.15749 13.0811 9.56196C13.2486 9.96643 13.3349 10.3999 13.3349 10.8377C13.3349 11.2755 13.2486 11.709 13.0811 12.1135C12.9136 12.518 12.668 12.8855 12.3584 13.1951C12.0489 13.5046 11.6813 13.7502 11.2769 13.9177C10.8724 14.0853 10.4389 14.1715 10.0011 14.1715C9.11694 14.1715 8.26899 13.8203 7.64379 13.1951C7.01859 12.5699 6.66736 11.7219 6.66736 10.8377C6.66736 9.95357 7.01859 9.10562 7.64379 8.48042C8.26899 7.85522 9.11694 7.50398 10.0011 7.50398ZM10.0011 8.75398C9.44846 8.75398 8.91845 8.97352 8.52767 9.3643C8.13689 9.75508 7.91736 10.2851 7.91736 10.8377C7.91736 11.3904 8.13689 11.9204 8.52767 12.3112C8.91845 12.7019 9.44846 12.9215 10.0011 12.9215C10.5538 12.9215 11.0838 12.7019 11.4745 12.3112C11.8653 11.9204 12.0849 11.3904 12.0849 10.8377C12.0849 10.2851 11.8653 9.75508 11.4745 9.3643C11.0838 8.97352 10.5538 8.75398 10.0011 8.75398ZM10.0011 4.58398C13.8461 4.58398 17.1636 7.20898 18.0849 10.8877C18.1069 10.9681 18.1126 11.052 18.1018 11.1346C18.0909 11.2171 18.0636 11.2967 18.0216 11.3686C17.9795 11.4405 17.9235 11.5033 17.8568 11.5532C17.7902 11.6032 17.7142 11.6393 17.6334 11.6594C17.5526 11.6796 17.4685 11.6834 17.3862 11.6706C17.3039 11.6579 17.225 11.6288 17.1541 11.585C17.0832 11.5413 17.0218 11.4839 16.9734 11.4161C16.925 11.3483 16.8906 11.2715 16.8724 11.1902C16.4856 9.66058 15.5994 8.30371 14.3543 7.33461C13.1092 6.36551 11.5763 5.83959 9.99853 5.84016C8.42073 5.84074 6.88824 6.36778 5.64383 7.33778C4.39943 8.30779 3.51427 9.6653 3.1286 11.1952C3.08737 11.355 2.98464 11.492 2.84282 11.5763C2.701 11.6606 2.5316 11.6854 2.37156 11.6453C2.21152 11.6052 2.07382 11.5035 1.9885 11.3622C1.90318 11.221 1.87716 11.0518 1.9161 10.8915C2.36822 9.08956 3.4093 7.49029 4.87406 6.34755C6.33882 5.20482 8.14332 4.58412 10.0011 4.58398Z" fill="#ABAAAA"/>
</svg>
