<svg width="20" height="20" viewBox="0 0 20 20" fill="none" xmlns="http://www.w3.org/2000/svg">
<path d="M10 7.50398C10.4378 7.50398 10.8713 7.59021 11.2758 7.75775C11.6802 7.92529 12.0478 8.17085 12.3573 8.48042C12.6669 8.78998 12.9125 9.15749 13.08 9.56196C13.2475 9.96643 13.3338 10.3999 13.3338 10.8377C13.3338 11.2755 13.2475 11.709 13.08 12.1135C12.9125 12.518 12.6669 12.8855 12.3573 13.1951C12.0478 13.5046 11.6802 13.7502 11.2758 13.9177C10.8713 14.0853 10.4378 14.1715 10 14.1715C9.11584 14.1715 8.26789 13.8203 7.64269 13.1951C7.01749 12.5699 6.66626 11.7219 6.66626 10.8377C6.66626 9.95357 7.01749 9.10562 7.64269 8.48042C8.26789 7.85522 9.11584 7.50398 10 7.50398ZM10 8.75398C9.44736 8.75398 8.91735 8.97352 8.52657 9.3643C8.13579 9.75508 7.91626 10.2851 7.91626 10.8377C7.91626 11.3904 8.13579 11.9204 8.52657 12.3112C8.91735 12.7019 9.44736 12.9215 10 12.9215C10.5527 12.9215 11.0827 12.7019 11.4734 12.3112C11.8642 11.9204 12.0838 11.3904 12.0838 10.8377C12.0838 10.2851 11.8642 9.75508 11.4734 9.3643C11.0827 8.97352 10.5527 8.75398 10 8.75398ZM10 4.58398C13.845 4.58398 17.1625 7.20898 18.0838 10.8877C18.1058 10.9681 18.1115 11.052 18.1007 11.1346C18.0898 11.2171 18.0625 11.2967 18.0205 11.3686C17.9784 11.4405 17.9224 11.5033 17.8557 11.5532C17.7891 11.6032 17.7131 11.6393 17.6323 11.6594C17.5515 11.6796 17.4675 11.6834 17.3851 11.6706C17.3028 11.6579 17.2239 11.6288 17.153 11.585C17.0821 11.5413 17.0207 11.4839 16.9723 11.4161C16.9239 11.3483 16.8895 11.2715 16.8713 11.1902C16.4845 9.66058 15.5983 8.30371 14.3532 7.33461C13.1081 6.36551 11.5752 5.83959 9.99743 5.84016C8.41963 5.84074 6.88714 6.36778 5.64273 7.33778C4.39833 8.30779 3.51318 9.6653 3.12751 11.1952C3.08627 11.355 2.98354 11.492 2.84172 11.5763C2.69991 11.6606 2.5305 11.6854 2.37046 11.6453C2.21042 11.6052 2.07272 11.5035 1.9874 11.3622C1.90208 11.221 1.87606 11.0518 1.91501 10.8915C2.36713 9.08956 3.4082 7.49029 4.87296 6.34755C6.33772 5.20482 8.14222 4.58412 10 4.58398Z" fill="#3186F5"/>
</svg>
