<svg width="34" height="34" viewBox="0 0 34 34" fill="none" xmlns="http://www.w3.org/2000/svg">
<path d="M33.2383 17.5516L18.2383 0.884922C17.6067 0.181589 16.3933 0.181589 15.7617 0.884922L0.76168 17.5516C0.545774 17.7909 0.404055 18.0878 0.353754 18.4062C0.303453 18.7246 0.346739 19.0507 0.478347 19.3449C0.745014 19.9466 1.34168 20.3333 2.00001 20.3333H5.33335V31.9999C5.33335 32.4419 5.50894 32.8659 5.8215 33.1784C6.13406 33.491 6.55799 33.6666 7.00001 33.6666H12C12.442 33.6666 12.866 33.491 13.1785 33.1784C13.4911 32.8659 13.6667 32.4419 13.6667 31.9999V25.3333H20.3333V31.9999C20.3333 32.4419 20.5089 32.8659 20.8215 33.1784C21.1341 33.491 21.558 33.6666 22 33.6666H27C27.442 33.6666 27.866 33.491 28.1785 33.1784C28.4911 32.8659 28.6667 32.4419 28.6667 31.9999V20.3333H32C32.3228 20.3346 32.639 20.2421 32.9101 20.0668C33.1811 19.8916 33.3954 19.6413 33.5267 19.3464C33.6579 19.0515 33.7006 18.7248 33.6494 18.4061C33.5982 18.0874 33.4554 17.7905 33.2383 17.5516Z" fill="#3186F5"/>
</svg>
