<svg width="20" height="20" viewBox="0 0 20 20" fill="none" xmlns="http://www.w3.org/2000/svg">
<path d="M8.78366 12.1091L7.00866 10.3341L6.12533 11.2174L8.77533 13.8674L13.7753 8.86745L12.892 7.98411L8.78366 12.1091ZM10.0003 16.6674C8.45323 16.6674 6.9695 16.0529 5.87554 14.9589C4.78157 13.8649 4.16699 12.3812 4.16699 10.8341C4.16699 9.28702 4.78157 7.80329 5.87554 6.70933C6.9695 5.61536 8.45323 5.00078 10.0003 5.00078C11.5474 5.00078 13.0312 5.61536 14.1251 6.70933C15.2191 7.80329 15.8337 9.28702 15.8337 10.8341C15.8337 12.3812 15.2191 13.8649 14.1251 14.9589C13.0312 16.0529 11.5474 16.6674 10.0003 16.6674ZM10.0003 3.33411C8.0112 3.33411 6.10355 4.12429 4.69702 5.53081C3.2905 6.93734 2.50033 8.84499 2.50033 10.8341C2.50033 12.8232 3.2905 14.7309 4.69702 16.1374C6.10355 17.5439 8.0112 18.3341 10.0003 18.3341C11.9894 18.3341 13.8971 17.5439 15.3036 16.1374C16.7101 14.7309 17.5003 12.8232 17.5003 10.8341C17.5003 8.84499 16.7101 6.93734 15.3036 5.53081C13.8971 4.12429 11.9894 3.33411 10.0003 3.33411ZM6.56699 2.82578L5.50033 1.55078L1.66699 4.75911L2.74199 6.03411L6.56699 2.82578ZM18.3337 4.76745L14.5003 1.55078L13.4253 2.82578L17.2587 6.04245L18.3337 4.76745Z" fill="#2B2B2B"/>
</svg>
