<svg width="20" height="20" viewBox="0 0 20 20" fill="none" xmlns="http://www.w3.org/2000/svg">
<g clip-path="url(#clip0_2098_2710)">
<path fill-rule="evenodd" clip-rule="evenodd" d="M10.8327 1.66602C5.77018 1.66602 1.66602 5.77018 1.66602 10.8327C1.66602 15.8952 5.77018 19.9993 10.8327 19.9993C15.8952 19.9993 19.9993 15.8952 19.9993 10.8327C19.9993 5.77018 15.8952 1.66602 10.8327 1.66602ZM14.806 9.28268C14.8792 9.19905 14.9349 9.10163 14.9698 8.99616C15.0048 8.89068 15.0183 8.77928 15.0096 8.6685C15.0008 8.55773 14.97 8.44982 14.919 8.35112C14.8679 8.25243 14.7977 8.16494 14.7123 8.0938C14.6269 8.02266 14.5282 7.96932 14.4219 7.9369C14.3156 7.90448 14.204 7.89365 14.0934 7.90504C13.9829 7.91643 13.8757 7.9498 13.7783 8.00321C13.6809 8.05662 13.5951 8.12897 13.526 8.21602L9.94268 12.5152L8.08852 10.6602C7.93135 10.5084 7.72085 10.4244 7.50235 10.4263C7.28385 10.4282 7.07484 10.5158 6.92033 10.6703C6.76583 10.8248 6.67819 11.0339 6.67629 11.2523C6.67439 11.4708 6.75838 11.6813 6.91018 11.8385L9.41018 14.3385C9.49206 14.4203 9.59009 14.4842 9.69803 14.5261C9.80596 14.5679 9.92143 14.5868 10.0371 14.5816C10.1527 14.5763 10.266 14.547 10.3697 14.4956C10.4734 14.4441 10.5652 14.3716 10.6393 14.2827L14.806 9.28268Z" fill="#3186F5"/>
</g>
<defs>
<clipPath id="clip0_2098_2710">
<rect width="20" height="20" fill="white"/>
</clipPath>
</defs>
</svg>
