<svg width="100" height="100" viewBox="0 0 100 100" fill="none" xmlns="http://www.w3.org/2000/svg">
<path d="M50.0078 6.25C61.611 6.25 72.739 10.8594 80.9437 19.0641C89.1484 27.2688 93.7578 38.3968 93.7578 50C93.7578 61.6032 89.1484 72.7312 80.9437 80.9359C72.739 89.1406 61.611 93.75 50.0078 93.75C38.4046 93.75 27.2766 89.1406 19.0719 80.9359C10.8672 72.7312 6.25781 61.6032 6.25781 50C6.25781 38.3968 10.8672 27.2688 19.0719 19.0641C27.2766 10.8594 38.4046 6.25 50.0078 6.25ZM50.0078 25C49.2143 24.9993 48.4294 25.1641 47.7032 25.4839C46.977 25.8037 46.3255 26.2715 45.7902 26.8573C45.255 27.4431 44.8478 28.1341 44.5947 28.8862C44.3416 29.6382 44.2482 30.4348 44.3203 31.225L46.6016 56.2625C46.69 57.1043 47.087 57.8835 47.716 58.4498C48.345 59.0162 49.1614 59.3296 50.0078 59.3296C50.8542 59.3296 51.6706 59.0162 52.2996 58.4498C52.9286 57.8835 53.3256 57.1043 53.4141 56.2625L55.6891 31.225C55.7612 30.4353 55.6679 29.6393 55.4151 28.8876C55.1624 28.136 54.7558 27.4453 54.2212 26.8596C53.6867 26.2739 53.0359 25.806 52.3105 25.4858C51.585 25.1657 50.8008 25.0002 50.0078 25ZM50.0078 75C51.3339 75 52.6057 74.4732 53.5433 73.5355C54.481 72.5978 55.0078 71.3261 55.0078 70C55.0078 68.6739 54.481 67.4021 53.5433 66.4645C52.6057 65.5268 51.3339 65 50.0078 65C48.6817 65 47.41 65.5268 46.4723 66.4645C45.5346 67.4021 45.0078 68.6739 45.0078 70C45.0078 71.3261 45.5346 72.5978 46.4723 73.5355C47.41 74.4732 48.6817 75 50.0078 75Z" fill="#F24E1E"/>
</svg>
